<svg width="24" height="24" xmlns="http://www.w3.org/2000/svg"><g fill="#33C27F" fill-rule="evenodd"><path d="M12 24c6.627 0 12-5.373 12-12S18.627 0 12 0 0 5.373 0 12s5.373 12 12 12zm0-2c5.523 0 10-4.477 10-10S17.523 2 12 2 2 6.477 2 12s4.477 10 10 10z"/><path d="M10.666 13.639l-1.354-1.444a.707.707 0 0 0-.996-.12.717.717 0 0 0-.12 1.002l1.674 2.647a.915.915 0 0 0 1.514 0c.239-.321 5.338-6.737 5.338-6.737a.571.571 0 0 0-.222-1.019.564.564 0 0 0-.574.234l-5.26 5.437z" fill-rule="nonzero"/></g></svg>