<?xml version="1.0" encoding="UTF-8" standalone="no"?>
<!-- Created with Inkscape (http://www.inkscape.org/) -->

<svg
   xmlns:dc="http://purl.org/dc/elements/1.1/"
   xmlns:cc="http://creativecommons.org/ns#"
   xmlns:rdf="http://www.w3.org/1999/02/22-rdf-syntax-ns#"
   xmlns:svg="http://www.w3.org/2000/svg"
   xmlns="http://www.w3.org/2000/svg"
   xmlns:sodipodi="http://sodipodi.sourceforge.net/DTD/sodipodi-0.dtd"
   xmlns:inkscape="http://www.inkscape.org/namespaces/inkscape"
   width="3000.001"
   height="1545.448"
   viewBox="0 0 3000.001 1545.448"
   id="svg2"
   version="1.1"
   inkscape:version="0.91 r13725"
   sodipodi:docname="Virgin Mobile.svg">
  <title
     id="title8718">Virgin Mobile</title>
  <defs
     id="defs4">
    <clipPath
       id="clipPath6940"
       clipPathUnits="userSpaceOnUse">
      <path
         inkscape:connector-curvature="0"
         id="path6942"
         d="m 470.244,195.636 106.857,0 0,-62.949 -106.857,0 0,62.949 z" />
    </clipPath>
  </defs>
  <sodipodi:namedview
     id="base"
     pagecolor="#ffffff"
     bordercolor="#666666"
     borderopacity="1.0"
     inkscape:pageopacity="0.0"
     inkscape:pageshadow="2"
     inkscape:zoom="0.13664361"
     inkscape:cx="1448.7425"
     inkscape:cy="1078.6"
     inkscape:document-units="px"
     inkscape:current-layer="layer1"
     showgrid="false"
     fit-margin-top="20"
     fit-margin-left="20"
     fit-margin-right="20"
     fit-margin-bottom="20"
     units="px"
     borderlayer="true"
     inkscape:showpageshadow="false"
     inkscape:window-width="1366"
     inkscape:window-height="715"
     inkscape:window-x="-8"
     inkscape:window-y="-8"
     inkscape:window-maximized="1" />
  <metadata
     id="metadata7">
    <rdf:RDF>
      <cc:Work
         rdf:about="">
        <dc:format>image/svg+xml</dc:format>
        <dc:type
           rdf:resource="http://purl.org/dc/dcmitype/StillImage" />
        <dc:title>Virgin Mobile</dc:title>
      </cc:Work>
    </rdf:RDF>
  </metadata>
  <g
     inkscape:label="Capa 1"
     inkscape:groupmode="layer"
     id="layer1"
     transform="translate(181.25848,807.43967)">
    <g
       id="g8818">
      <g
         id="g8806">
        <g
           id="g6948"
           transform="matrix(33.122408,0,0,-33.122408,2464.4711,-54.838252)"
           style="opacity:1">
          <path
             d="m 0,0 -19.039,0 c 0.734,1.676 1.091,3.282 1.091,4.9 0,0.416 -0.028,0.839 -0.076,1.251 -1.429,12.619 -20.607,15.967 -31.72,15.967 -8.168,0 -16.042,-3.24 -21.614,-8.895 -5.318,-5.414 -8.042,-12.531 -7.911,-20.6 0.097,-5.256 1.971,-9.518 5.432,-12.335 3.55,-2.879 7.704,-3.481 9.854,-3.576 8.06,-0.396 16.676,1.821 25.637,6.574 1.866,-2.134 4.588,-3.486 7.628,-3.486 L 0,-20.2 c 5.568,0 10.092,4.529 10.092,10.096 C 10.092,-4.538 5.568,0 0,0"
             style="fill:#ffffff;fill-opacity:1;fill-rule:evenodd;stroke:none"
             id="path6950"
             inkscape:connector-curvature="0" />
        </g>
        <g
           id="g6952"
           transform="matrix(33.122408,0,0,-33.122408,1112.6462,279.83055)">
          <path
             d="m 0,0 c 0,5.566 4.531,10.104 10.095,10.104 l 10.227,0 c 0.934,1.926 1.404,3.89 1.161,6.011 -1.341,11.809 -20.307,14.807 -30.414,14.807 -13.825,0 -28.515,-10.099 -28.21,-28.176 0.196,-10.983 8.323,-14.343 14.041,-14.626 9.458,-0.451 18.176,2.858 24.762,6.335 C 0.609,-3.947 0,-2.048 0,0"
             style="fill:#df173b;fill-opacity:1;fill-rule:evenodd;stroke:none"
             id="path6954"
             inkscape:connector-curvature="0" />
        </g>
        <g
           id="g6956"
           transform="matrix(33.122408,0,0,-33.122408,1447.017,-11.017313)">
          <path
             d="m 0,0 30.718,0 c 4.842,0 8.766,-3.927 8.766,-8.781 0,-4.848 -3.924,-8.768 -8.766,-8.768 l -30.718,0 c -4.847,0 -8.78,3.92 -8.78,8.768 C -8.78,-3.927 -4.847,0 0,0"
             style="fill:#001722;fill-opacity:1;fill-rule:evenodd;stroke:none"
             id="path6958"
             inkscape:connector-curvature="0" />
        </g>
        <g
           id="g6960"
           transform="matrix(33.122408,0,0,-33.122408,1011.4572,-385.46614)">
          <path
             d="M 0,0 -0.045,0.056 -0.04,0.145 -0.026,0.196 0,0.241 l 0,0.061 0.011,0.047 0.017,0.005 0.006,0.033 0.009,0.039 0.02,0.08 0.025,0.053 0.064,0.08 0.009,0.032 0.012,0.034 0.036,0.032 0.019,0.026 0.044,0.062 0.012,0.013 0,0.027 0.044,0.012 0.02,0.019 0.011,0.03 0.04,0.012 0.018,0.038 0.065,0.046 0.014,0.035 0.047,0.009 0.017,0.019 0.016,0 0.007,0.022 0.031,0.011 c 0.181,0.132 0.169,0.11 0.375,0.203 l 0.085,0.02 0.072,0.024 c 0.157,0.02 0.351,0.043 0.488,-0.052 l 0.093,0.023 0.031,0 L 1.783,1.302 1.795,1.27 1.821,1.228 1.847,1.193 1.858,1.157 1.888,1.13 1.919,1.085 1.919,1.043 1.942,0.953 1.932,0.938 1.942,0.909 1.946,0.877 1.964,0.842 1.97,0.832 1.964,0.808 1.919,0.751 1.888,0.671 1.88,0.611 1.871,0.58 1.858,0.553 1.847,0.506 1.821,0.483 1.795,0.445 1.783,0.419 1.758,0.377 1.745,0.338 1.682,0.292 1.612,0.196 1.537,0.12 1.49,0.05 1.442,-0.018 1.397,-0.097 1.252,-0.203 1.169,-0.262 1.135,-0.292 1.117,-0.33 1.046,-0.343 0.97,-0.392 0.851,-0.445 0.831,-0.478 0.749,-0.485 0.724,-0.47 0.693,-0.47 0.598,-0.485 0.482,-0.47 0.322,-0.432 0.239,-0.401 0.171,-0.357 0.063,-0.243 0.05,-0.203 0.034,-0.164 0.011,-0.097 0,0 m -1.151,-9.151 -0.02,0.114 c -0.009,0.457 0.074,0.95 0.1,1.407 l 0.018,0.05 -0.018,0.006 0.018,0 0,0.057 0.009,0.058 -0.009,0.005 0.015,0.024 0,0.044 0.016,0.13 0,0.031 -0.009,0.031 0.018,0.039 0.013,0.122 0.016,0.086 0,0.066 0.004,0.138 0.006,0.104 0.018,0.031 -0.018,0.026 0.018,0.031 0,0.189 0.007,0 0.02,0.015 -0.004,0.013 -0.016,0 0,0.023 0.02,0.014 -0.02,0.039 0.016,0.024 0.004,0.062 0.015,0.109 0,0.026 0.028,0.006 -0.012,0.028 -0.016,0.006 0,0.018 0.016,0.01 -0.016,0.014 0.028,0.019 -0.012,0.032 0,0.09 0.012,0.057 0,0.057 0.01,0.039 0.023,0 0.001,0.013 -0.024,0.031 0.009,0.007 0.014,0.043 0.008,0.096 0,0.104 0.013,0.037 0.003,0.081 -0.008,0.026 -0.008,0.025 0.008,0.007 0.032,0.006 -0.024,0.038 0.006,0.019 0.018,0.023 -0.024,0.028 -0.003,0.008 0.009,0.004 0.026,-0.012 0,0.012 -0.026,0.011 0,0.029 0.018,0.011 0.008,0.004 -0.008,0 0.008,0.021 c -0.005,0.108 0.019,0.136 0.01,0.263 l 0,0.011 0.017,0 0.007,0.045 -0.007,0.004 0.007,0.035 0,0.067 0.011,0.109 0,0.037 0.012,0.014 0.001,0.021 -0.001,0.017 0,0.034 0.01,0.023 0.01,0.046 0.008,0 0,0.025 -0.008,0.005 0,0.057 0.008,0.006 -0.008,0.012 0,0.007 0.008,-0.007 0.005,0.066 0.012,0.063 0.008,0.048 0.019,0.01 0,0.061 -0.019,0.032 0.029,0.047 0.004,0.086 0,0.034 0.012,0 -0.012,0.025 0.012,0 -0.006,0.037 -0.006,0.008 0.006,0.004 0.012,0.081 0.012,0.043 -0.009,0 0.023,0.1 0.009,0.052 0.019,0.016 0,0.036 0.028,0.044 0.006,0.011 0.004,0.04 0.02,0.016 -0.007,0.022 0.016,0.007 0.005,0.009 -0.005,0.013 0.018,0.006 0.016,0.015 -0.01,0.02 0.024,0.049 -0.007,0.032 0.053,0.077 0.016,0.041 0.017,0.01 0.019,0.05 0.014,0 0.019,0.051 0.067,0.062 c 0.077,0.098 0.239,0.252 0.332,0.325 l 0.061,0.025 0.037,0.013 0.022,0.026 0.012,0 0.014,0.006 0.03,0.011 0.033,0.015 0.033,0.02 0.065,0 0.035,0.024 0.032,0.013 0.023,0 0.022,-0.032 0.014,0.019 c 0.169,0.035 0.323,0.04 0.452,-0.087 l 0.016,0 0,-0.028 0.006,0 0.017,-0.038 -0.017,-0.032 0.017,0 0.011,-0.025 0,-0.005 L 0.989,-2.532 0.97,-2.535 0.987,-2.539 1.01,-2.548 1.01,-2.562 0.998,-2.581 0.987,-2.587 0.97,-2.612 l 0.019,0 0,-0.018 0.009,-0.014 0,-0.013 0.012,0.013 0.011,0.014 0.025,-0.014 0.013,0 -0.006,-0.005 0.006,-0.013 -0.013,-0.019 0.013,0.005 -0.006,-0.014 -0.007,-0.044 0.007,-0.018 0.021,-0.024 -0.015,0 0.015,0 0,0.013 0.017,-0.008 0.003,-0.025 0,-0.014 0.009,-0.011 0.014,-0.005 0.007,-0.021 -0.007,-0.029 -0.014,-0.031 0,-0.028 0.011,-0.038 0.003,-0.018 0.012,-0.022 -0.012,-0.025 -0.023,-0.005 0,-0.037 -0.003,-0.023 -0.038,-0.016 0.021,-0.028 0,-0.013 0.017,0.013 0,-0.013 -0.017,-0.004 0.017,-0.005 -0.032,-0.007 -0.006,0 -0.007,-0.029 0,-0.016 0.007,0 0.021,-0.026 0,-0.018 -0.053,-0.053 -0.011,-0.017 0,-0.01 0.011,-0.016 0,-0.019 0.007,0 0.018,-0.007 0.028,0 -0.015,-0.013 -0.013,0 -0.018,-0.045 0.018,-0.006 0,-0.012 0.013,0 -0.006,-0.038 -0.007,0 0.007,-0.012 -0.007,-0.027 0.013,-0.024 -0.02,-0.02 -0.029,-0.007 0,-0.05 0.029,0 -0.011,-0.031 -0.007,0.007 -0.011,-0.021 -0.021,0 0.021,-0.013 0,-0.046 0.011,0 -0.011,-0.017 0,-0.012 -0.023,-0.014 -0.017,-0.017 -0.006,-0.026 -0.016,0 -0.012,-0.013 0.009,-0.013 -0.009,-0.015 0.051,-0.006 0.052,0 -0.029,-0.017 0,-0.026 -0.023,-0.013 0.011,-0.016 0.012,-0.008 -0.023,0 0,0.008 -0.042,0 0,-0.008 0.003,-0.023 0.016,-0.016 0.006,-0.024 0,-0.035 -0.022,-0.017 0,0.014 -0.012,0 -0.01,-0.014 0.022,-0.041 0.016,-0.023 0,-0.006 0.006,0 -0.006,-0.015 0,-0.018 -0.028,0 -0.006,0.006 -0.004,-0.006 0,-0.133 -0.013,0 -0.006,-0.005 0,-0.024 0.019,-0.028 0,-0.229 0.01,0.015 0.012,0.005 0,-0.005 L 0.945,-4.6 0.93,-4.622 0.926,-4.631 l 0,-0.015 0.01,0 0.012,-0.006 -0.003,-0.014 0,-0.004 -0.009,-0.02 0.012,0 -0.012,-0.013 0.012,-0.023 0.016,-0.029 0,-0.013 -0.016,-0.005 0,-0.057 -0.022,-0.049 0,-0.102 0.022,-0.02 0,-0.009 0.016,0 0,-0.035 -0.028,-0.013 -0.01,-0.047 0.022,-0.023 0,-0.005 -0.012,-0.033 -0.01,-0.025 0,-0.091 0.019,-0.013 0.003,-0.01 0,-0.005 0.022,0 L 0.948,-5.338 0.93,-5.376 0.926,-5.414 0.93,-5.433 0.926,-5.456 0.948,-5.439 0.964,-5.42 0.97,-5.456 0.945,-5.477 0.93,-5.498 l 0.006,-0.017 -0.01,-0.027 0,-0.08 0.022,-0.02 L 0.945,-5.661 0.97,-5.713 0.948,-5.721 0.936,-5.749 0.948,-5.788 0.964,-5.814 0.97,-5.844 0.948,-5.877 0.945,-5.955 0.97,-5.979 l 0,-0.024 -0.022,0 -0.041,-0.034 0.019,-0.026 -0.019,-0.02 0,-0.024 -0.032,0.015 -0.028,-0.035 0.004,-0.08 0.012,-0.027 -0.012,-0.007 -0.023,-0.037 0.019,-0.062 0,-0.037 -0.006,-0.023 0.006,-0.024 0.004,-0.039 0.075,-0.032 0.01,-0.018 0.012,-0.038 0.016,-0.02 -0.016,-0.011 -0.003,-0.046 0,-0.011 -0.015,0 -0.004,0.006 0,0.014 -0.038,0.018 -0.013,0.019 -0.024,-0.007 0.012,0.018 -0.012,0.02 -0.038,-0.02 0.015,-0.037 0,-0.025 0.023,0 0.024,-0.006 -0.012,-0.015 0,-0.068 0.044,-0.025 0.019,0.013 0.01,-0.027 0.009,-0.026 0,-0.03 -0.019,0.003 -0.085,0.053 -0.013,0 -0.015,0.014 0,-0.067 -0.01,-0.047 0,-0.033 L 0.785,-6.909 0.807,-6.931 0.793,-6.964 C 0.774,-7.175 0.79,-7.393 0.762,-7.6 l 0.013,-0.03 -0.013,-0.014 -0.013,-0.051 0,-0.139 -0.008,-0.142 0.021,-0.062 0.031,-0.039 -0.008,-0.063 0,-0.043 0.028,-0.016 -0.02,-0.012 -0.031,-0.053 0,-0.042 0.013,-0.049 -0.013,0 0.007,-0.027 -0.02,-0.101 C 0.635,-8.746 0.444,-9.001 0.193,-9.151 L 0.102,-9.228 0.043,-9.241 0.034,-9.25 0,-9.264 l -0.122,-0.071 -0.204,-0.108 -0.198,-0.071 -0.138,-0.007 -0.135,0.015 -0.121,0.018 -0.059,0.066 -0.094,0.07 -0.042,0.08 -0.038,0.121 m 14.065,4.082 -0.033,-0.054 0.012,-0.01 -0.052,-0.058 0.063,0.018 -0.005,-0.076 0.05,-0.018 -0.05,-0.038 -0.058,-0.005 0,-0.066 -0.028,-0.044 0,-0.051 -0.023,-0.032 -0.013,0.032 -0.055,-0.071 0.021,0 -0.048,-0.03 0.012,-0.045 -0.023,-0.025 0.023,-0.071 -0.043,0.019 -0.026,0.013 -0.004,-0.032 C 12.361,-6.232 11.746,-6.54 11.216,-6.734 l -0.13,-0.027 C 10.991,-6.799 10.912,-6.817 10.824,-6.843 L 10.677,-6.881 10.546,-6.926 10.28,-7.014 9.999,-7.098 9.873,-7.155 9.616,-7.246 9.525,-7.269 9.431,-7.326 9.344,-7.346 9.269,-7.386 9.183,-7.41 9.108,-7.454 9.037,-7.459 8.977,-7.493 8.876,-7.544 8.772,-7.592 8.716,-7.612 8.678,-7.644 8.618,-7.652 8.583,-7.677 8.477,-7.734 8.373,-7.773 8.273,-7.816 8.156,-7.872 8.047,-7.899 8,-7.936 7.952,-7.969 7.838,-8.012 l 0,-0.015 -0.007,0 C 7.533,-8.165 7.246,-8.307 6.963,-8.465 l -0.041,-0.038 0,0.02 -0.082,-0.053 -0.046,-0.036 -0.052,0 L 6.656,-8.621 6.641,-8.64 6.632,-8.654 6.568,-8.673 6.536,-8.693 6.498,-8.717 6.359,-8.776 6.333,-8.802 6.277,-8.826 6.264,-8.845 6.236,-8.852 6.141,-8.907 5.998,-8.978 5.901,-9.03 5.793,-9.075 5.679,-9.144 C 5.557,-9.21 5.465,-9.254 5.342,-9.315 L 5.239,-9.378 5.208,-9.393 5.178,-9.413 5.115,-9.416 5.087,-9.455 5.043,-9.488 4.939,-9.526 4.898,-9.55 4.863,-9.582 4.77,-9.65 4.677,-9.664 4.637,-9.703 C 4.347,-9.82 4.109,-10.018 3.832,-10.154 l -0.026,-0.014 -0.053,-0.019 c -0.381,-0.231 -0.779,-0.442 -1.161,-0.664 l -0.039,-0.027 -0.066,-0.024 -0.018,-0.027 -0.019,0 -0.049,-0.026 C 1.924,-11.251 1.436,-11.521 0.948,-11.821 L 0.851,-11.887 0.645,-12.002 0.537,-12.073 C 0.39,-12.141 0.427,-12.137 0.305,-12.23 l -0.09,-0.038 -0.119,-0.066 c -0.179,-0.122 -0.305,-0.212 -0.498,-0.324 l -0.025,-0.039 -0.026,-0.011 -0.11,-0.064 0,-0.015 -0.124,-0.05 -0.033,-0.037 -0.05,-0.02 -0.027,-0.019 -0.026,-0.018 -0.044,-0.019 -0.038,-0.033 -0.028,-0.036 0.004,-0.013 -0.048,-0.02 -0.045,-0.013 -0.052,-0.025 -0.017,-0.012 0.002,-0.026 -0.062,-0.026 -0.048,-0.025 c -0.179,-0.07 -0.298,-0.22 -0.468,-0.304 l -0.082,-0.064 -0.095,-0.065 -0.032,0 -0.031,-0.023 -0.025,-0.022 -0.022,-0.016 -0.018,-0.014 -0.022,-0.018 -0.026,-0.008 -0.038,-0.032 -0.01,-0.026 -0.017,0 -0.056,-0.035 -0.037,-0.026 -0.022,-0.022 0,0.015 -0.039,-0.033 -0.013,-0.01 -0.005,-0.015 -0.018,0 -0.014,-0.008 -0.025,-0.015 0,-0.01 -0.003,-0.003 -0.017,-0.033 -0.025,-0.005 -0.035,-0.028 -0.016,0 -0.031,-0.013 -0.016,-0.018 -0.035,-0.018 -0.02,-0.022 -0.009,-0.006 0.009,-0.012 -0.018,-0.045 -0.031,-0.05 -0.015,-0.013 -0.028,-0.017 -0.072,-0.014 -0.025,-0.037 -0.049,-0.021 -0.018,-0.019 -0.03,0.006 -0.028,-0.038 -0.047,-0.063 -0.037,-0.031 0,-0.033 0.013,-0.012 0,-0.005 0.019,-0.033 -0.01,-0.032 -0.022,-0.025 0,-0.052 -0.023,-0.051 0.045,-0.025 0.01,-0.022 -0.01,-0.029 -0.022,-0.018 -0.023,0 -0.017,-0.02 0.023,0 0.017,-0.051 -0.023,-0.05 0,-0.04 0.023,-0.022 -0.017,-0.047 0,-0.038 -0.006,-0.024 0,-0.033 0.023,-0.042 0.022,0.029 0.015,-0.039 -0.005,-0.023 -0.032,-0.025 -0.017,-0.026 -0.023,-0.032 -0.014,-0.015 -0.003,-0.023 0,-0.034 -0.021,-0.018 0.038,-0.032 0.023,0.012 0.017,-0.021 -0.023,-0.046 -0.017,-0.077 0,-0.027 -0.014,-0.018 -0.024,-0.057 -0.02,-0.025 0.02,-0.013 0.024,-0.008 0.014,-0.011 0.012,-0.027 0.028,-0.012 0,-0.121 -0.023,-0.037 -0.017,-0.032 -0.007,-0.044 -0.01,-0.026 0.01,-0.027 -0.007,-0.023 -0.003,-0.032 -0.021,-0.019 -0.007,-0.028 0.028,-0.031 -0.021,-0.048 0.038,-0.021 0.017,-0.006 0.006,0 0,-0.011 -0.023,-0.034 0.017,-0.031 -0.034,-0.032 0,0.032 -0.049,0.006 -0.01,-0.065 0.018,-0.015 0,-0.035 0.02,-0.046 0.021,-0.027 0.017,-0.022 -0.007,-0.057 -0.007,-0.008 0,-0.011 -0.003,-0.031 -0.021,-0.038 -0.02,-0.02 0.013,-0.077 0.045,-0.024 -0.014,-0.033 c -0.021,-0.099 0.058,0.002 -0.024,-0.165 l -0.02,-0.008 0,-0.04 0.02,-0.016 0.021,-0.036 -0.041,-0.034 0.013,-0.032 0.007,-0.006 0.021,-0.017 -0.021,-0.028 0,-0.005 -0.02,-0.024 0.02,-0.046 -0.02,-0.051 0,-0.056 0.02,0 -0.02,-0.038 0,-0.146 0.02,-0.044 0.021,-0.007 0,-0.005 -0.021,-0.051 -0.02,-0.027 0,-0.032 -0.018,-0.02 0.038,-0.013 0,0.008 0.021,-0.008 0.01,-0.029 0.007,0 0,-0.02 -0.014,-0.014 -0.003,-0.044 0,-0.021 0.017,0 0.017,-0.005 0,-0.025 -0.055,-0.007 -0.038,-0.019 0.018,-0.023 -0.008,-0.015 -0.017,-0.011 0,-0.041 -0.041,-0.019 0.029,-0.006 0.012,0 0.017,0.006 0.028,0.015 0,-0.088 0.021,0 0,-0.122 -0.021,0 0.021,-0.011 0,-0.027 0.017,0 -0.038,-0.005 0,-0.072 0.021,-0.005 0,-0.008 -0.021,-0.019 0,-0.006 -0.02,-0.064 0,-0.049 0.02,-0.009 0,-0.024 -0.02,-0.037 -0.008,-0.014 -0.017,0 0.017,-0.015 0.028,-0.005 0,-0.051 -0.02,-0.005 0,-0.059 0.013,-0.031 0.007,-0.025 -0.02,-0.004 0,-0.073 0.02,-0.031 0,-0.068 -0.02,-0.02 -0.025,-0.013 0,-0.014 0.025,-0.005 0,-0.103 -0.018,-0.082 -0.007,0 0,-0.038 -0.041,-0.018 0,-0.012 0.029,0 0.012,0.012 0.017,-0.012 0.008,-0.038 0,-0.02 -0.025,0 0,-0.026 -0.003,-0.013 0.028,-0.049 0.02,-0.017 0.021,-0.003 0,-0.052 -0.021,-0.017 0,-0.033 -0.02,-0.025 0,-0.038 -0.018,-0.037 -0.019,-0.033 0.012,-0.021 0.019,0.014 0.006,-0.018 -0.018,-0.012 0.038,-0.016 -0.007,-0.044 -0.038,-0.056 -0.003,-0.057 0.028,0.039 0.02,0.011 0,-0.02 -0.028,-0.042 0,-0.031 -0.017,-0.027 0.025,-0.006 0.02,0.013 -0.028,-0.033 -0.017,-0.023 0.017,-0.01 0.028,-0.004 0.021,-0.026 -0.049,-0.032 0.008,-0.031 0.02,-0.02 0.031,0 0.007,-0.02 -0.058,-0.013 -0.066,-0.023 -0.012,-0.021 -0.004,-0.025 -0.003,-0.025 0,-0.019 -0.022,-0.018 -0.006,-0.026 0.012,-0.008 0.016,-0.062 0.019,0 0,-0.027 -0.035,-0.03 -0.012,-0.02 0.012,-0.019 0.016,-0.024 0.003,0.024 0.054,-0.012 -0.038,-0.038 0.066,0.031 0.02,-0.024 0.021,-0.04 0.003,-0.013 -0.003,-0.037 0,-0.024 -0.041,0.011 -0.053,0.019 -0.016,-0.019 -0.032,-0.028 0.035,-0.029 0,-0.025 0.038,-0.019 0.048,-0.032 -0.007,-0.039 -0.066,-0.014 0.035,-0.038 0.038,-0.012 0,-0.016 -0.02,-0.065 0.041,-0.013 0,-0.034 -0.059,-0.03 -0.01,-0.013 -0.041,0 -0.063,0.013 0.05,-0.013 0.074,-0.007 0,-0.024 -0.017,0 -0.041,-0.021 0.029,-0.012 0.012,-0.063 -0.041,-0.05 -0.016,-0.014 -0.025,-0.024 -0.006,-0.056 0.026,-0.021 0.002,-0.026 0.019,-0.039 -0.003,-0.011 0.003,-0.027 0,-0.029 0.041,0 0.017,0.011 0.008,0.028 0.02,-0.01 -0.02,-0.018 0,-0.071 -0.028,-0.024 0.028,-0.011 0,-0.045 0.041,0.003 0.017,0.042 -0.014,-0.022 -0.003,-0.062 -0.041,-0.037 0.044,-0.014 0.031,0.045 -0.055,-0.069 -0.065,0 -0.024,-0.067 -0.016,-0.018 -0.022,-0.031 -0.006,-0.031 0.026,0 0.005,-0.038 -0.005,-0.05 0.062,-0.028 -0.003,-0.05 0.028,-0.041 0.02,-0.041 -0.121,-0.025 -0.012,-0.05 0.031,-0.063 -0.031,-0.047 0.012,-0.03 0.014,-0.033 0.05,-0.008 0.029,0.041 -0.01,0.036 0.038,-0.024 -0.02,-0.012 0,-0.033 0.013,-0.059 -0.013,-0.009 0.041,-0.015 0.034,-0.02 -0.034,-0.037 -0.086,-0.044 0.02,-0.027 0,-0.025 0.025,-0.036 -0.008,-0.103 -0.058,-0.051 0.086,-0.065 -0.02,-0.057 0.051,0 0,-0.051 0.007,0 0.086,-0.003 -0.009,-0.022 -0.02,-0.025 -0.017,-0.012 0,-0.013 -0.023,0 -0.017,-0.116 -0.017,-0.045 0.04,0 0.078,-0.028 -0.029,0 -0.032,-0.032 0,-0.047 0.013,-0.049 0.048,-0.012 0.027,0 -0.004,-0.026 -0.038,-0.046 0.066,-0.062 -0.051,-0.07 0.056,-0.007 -0.023,-0.043 -0.006,-0.032 0.006,-0.041 0.018,-0.038 -0.024,-0.012 0,-0.024 0,0.006 -0.088,0.013 0.037,-0.065 0.009,-0.057 -0.029,-0.03 0,-0.014 -0.004,-0.032 -0.013,-0.013 0,-0.019 -0.023,-0.024 0.04,-0.02 0,-0.009 0.015,0 0,-0.029 -0.01,-0.02 0.015,0 0.047,-0.031 0.004,-0.03 0.039,0 0,0.05 0.015,0.011 0.018,0.012 0.018,-0.036 -0.018,-0.021 0,-0.016 0.028,0 0.015,-0.02 0.019,-0.007 0,-0.018 -0.013,-0.026 -0.006,-0.02 0,-0.038 0.006,-0.012 0,-0.019 -0.017,0.027 -0.014,-0.021 0.025,-0.012 0,-0.015 0.006,-0.004 0.013,-0.046 0.012,-0.044 0.01,-0.051 0.016,0 0.006,-0.005 0.004,-0.051 -0.01,-0.025 0.012,0.004 -0.002,-0.037 0.046,0 -0.01,-0.024 0.033,0.024 -0.017,-0.037 0.027,-0.035 -0.043,-0.052 0.01,-0.02 -0.018,-0.027 -0.054,-0.04 0.038,-0.043 -0.06,-0.013 -0.08,-0.012 -0.015,-0.053 0.025,-0.016 0.036,0.05 0.072,-0.045 0.006,0.007 -0.057,-0.058 -0.082,0 0.01,-0.013 0.005,-0.024 -0.005,0 0.015,-0.012 -0.01,-0.04 -0.015,-0.012 0,-0.021 0.01,-0.036 0.015,-0.027 -0.01,-0.043 0.018,-0.056 0.106,-0.053 0.032,0.101 0.032,-0.017 -0.014,-0.031 0.014,-0.096 0.015,0.037 0.035,-0.028 0.028,-0.023 0.035,-0.043 -0.05,-0.034 -0.034,0.04 -0.067,-0.045 0.067,0 0.059,-0.055 0.037,-0.028 0.052,-0.011 -0.042,-0.072 -0.01,0.057 -0.009,-0.03 -0.028,-0.032 -0.044,0.005 0.024,-0.005 0.039,-0.051 -0.057,-0.027 -0.006,-0.05 -0.058,0.006 -0.034,0.033 -0.016,0.024 0.004,-0.024 -0.004,-0.007 0.006,-0.013 0,-0.037 0.062,-0.009 0.015,0.009 0.028,-0.009 0.012,-0.061 -0.04,-0.006 -0.015,-0.033 -0.018,0 -0.01,-0.032 0.028,-0.037 -0.018,-0.019 0.061,-0.014 0.021,-0.025 0.01,0 -0.019,-0.026 0.042,0.026 -0.013,-0.057 0.025,-0.044 -0.025,-0.024 0.035,-0.036 0.002,0.036 0.029,-0.036 0.047,0 0.02,-0.029 0.018,0.029 -0.006,-0.062 -0.063,-0.044 -0.031,-0.064 0,-0.044 -0.026,0 0.022,-0.02 0.019,-0.022 -0.066,-0.038 -0.02,-0.043 -0.018,-0.048 0.009,-0.051 0.029,0 0.028,-0.02 0.105,-0.032 -0.051,-0.016 -0.031,-0.027 -0.014,0 -0.009,-0.024 -0.057,-0.009 -0.012,-0.026 c -0.121,-0.15 -0.015,-0.18 -0.217,-0.369 l -0.043,-0.043 c -0.085,-0.065 -0.174,-0.133 -0.284,-0.204 l -0.063,-0.018 -0.045,-0.038 -0.053,0 -0.062,-0.026 -0.234,-0.025 -0.211,0.007 -0.133,0.024 -0.254,0.07 -0.101,0.067 -0.096,0.049 -0.104,0.08 -0.042,0.057 -0.05,0.044 -0.059,0.059 -0.046,0.115 -0.016,0.013 -0.012,0.03 -0.008,0.071 -0.054,0.123 -0.007,0.054 -0.015,0.057 -0.015,0 -0.017,0.116 -0.019,0.063 0.007,0.025 -0.026,0.007 -0.015,0.054 -0.004,0.072 -0.006,0.071 -0.005,0.025 0,0.032 0.005,0.014 -0.005,0.004 0,0.096 c -0.063,0.352 0.007,0.741 0,1.111 l 0,0.058 c -0.007,0.385 0.029,0.79 0.015,1.163 l 0.034,0.052 0,0.068 0.007,0.103 -0.013,0.038 0.006,0.056 0.007,0.132 0,0.277 0.012,0.125 -0.012,0.058 0.012,0.082 0.017,0.128 0,0.062 -0.017,0.044 0.017,0.059 0,0.202 -0.012,0.128 -0.005,0.135 0.005,0.062 0.027,0.089 -0.015,0.102 -0.017,0.195 -0.012,0.072 0.012,0.059 0,0.133 0.017,0.113 0,0.103 0.03,0.089 -0.03,0.117 0.03,0.059 0,0.064 -0.03,0.056 -0.017,0.053 0,0.062 0.054,0.006 0.007,0.141 0.009,0.03 -0.016,0.033 0.007,0.032 -0.007,0.039 -0.007,0.062 0.007,0.027 0,0.322 c 0.013,0.167 0.013,0.411 0,0.579 l 0.007,0.14 -0.007,0.027 0.011,0.01 c -0.009,0.104 -0.008,0.204 0,0.307 l 0,0.214 0.005,0 0,0.123 c -0.016,0.505 -0.007,1.025 -0.005,1.532 l -0.011,0.094 0.011,0.006 -0.004,0.138 0,0.133 0.009,0.258 -0.009,0.036 0.017,0.071 -0.013,0.114 0,0.057 0.005,0.032 0.014,0.071 -0.006,0.05 0.006,0.076 -0.006,0 -0.09,-0.047 -0.007,-0.015 c -0.151,-0.06 -0.165,-0.104 -0.286,-0.162 l -0.034,-0.018 -0.099,-0.068 c -0.15,-0.083 -0.356,-0.257 -0.497,-0.363 l -0.035,-0.034 -0.046,-0.043 -0.049,-0.033 -0.037,-0.038 c -0.123,-0.111 -0.26,-0.203 -0.392,-0.3 l -0.069,-0.06 -0.057,-0.048 -0.064,-0.035 -0.05,-0.032 -0.032,-0.046 -0.051,-0.026 -0.044,-0.024 -0.018,-0.045 -0.056,-0.03 -0.03,-0.033 -0.044,0 -0.005,-0.024 c -0.167,-0.136 -0.366,-0.276 -0.526,-0.421 l -0.045,-0.044 0,0.005 -0.019,-0.011 c -0.264,-0.155 -0.578,-0.476 -0.813,-0.635 l -0.022,-0.046 -0.039,-0.004 c -0.112,-0.153 -0.339,-0.251 -0.467,-0.413 l -0.033,-0.007 -0.004,-0.019 -0.06,-0.038 -0.105,-0.084 -0.033,-0.044 -0.027,-0.007 -0.006,-0.025 c -0.159,-0.111 -0.322,-0.27 -0.481,-0.388 l -0.065,-0.031 -0.003,-0.018 c -0.469,-0.359 -0.923,-0.762 -1.381,-1.132 l -0.071,-0.067 0,0.017 -0.055,-0.052 -0.058,-0.045 -0.039,-0.036 -0.039,-0.042 -0.086,-0.05 -0.037,-0.044 -0.047,-0.037 -0.046,-0.033 -0.026,-0.044 -0.055,-0.02 -0.044,-0.045 -0.089,-0.057 -0.016,-0.05 -0.046,-0.051 -0.073,-0.082 -0.056,-0.026 -0.04,-0.039 -0.069,-0.08 -0.066,-0.082 -0.016,-0.042 -0.057,-0.048 -0.07,-0.069 -0.036,-0.04 -0.043,-0.027 -0.071,-0.08 -0.043,-0.031 -0.022,-0.033 -0.084,-0.064 -0.071,-0.049 -0.089,-0.043 -0.144,-0.123 -0.089,-0.108 -0.057,-0.053 -0.039,-0.051 -0.043,-0.057 -0.038,-0.024 -0.03,-0.025 0,-0.019 -0.054,-0.043 -0.056,-0.09 -0.059,-0.038 -0.045,-0.051 -0.076,-0.085 -0.035,-0.037 -0.167,-0.146 -0.122,-0.189 -0.109,-0.071 -0.076,-0.069 -0.013,-0.054 -0.044,-0.029 -0.066,-0.084 -0.079,-0.087 -0.036,-0.032 -0.028,-0.033 -0.022,0 -0.057,-0.076 -0.036,-0.027 c -0.096,-0.095 -0.18,-0.197 -0.274,-0.292 l -0.038,-0.031 -0.069,-0.075 -0.082,-0.065 -0.072,-0.081 -0.048,-0.04 -0.033,-0.023 -0.024,-0.059 -0.038,-0.013 -0.019,-0.005 -0.003,-0.02 -0.021,-0.006 -0.012,-0.012 -0.035,-0.034 -0.051,-0.074 -0.038,-0.063 -0.09,-0.096 -0.038,-0.053 -0.041,-0.038 -0.01,-0.045 -0.063,-0.037 -0.038,-0.051 -0.044,-0.017 -0.032,-0.046 -0.028,-0.033 -0.043,-0.031 -0.03,-0.05 -0.027,-0.05 -0.046,-0.031 -0.087,-0.087 -0.084,-0.073 c -0.255,-0.274 -0.623,-0.614 -0.899,-0.874 l -0.036,-0.025 -0.062,0 -0.009,-0.017 -0.018,-0.012 -0.054,-0.032 -0.128,0 -0.065,-0.039 -0.063,0.019 -0.056,-0.019 -0.067,0.019 -0.06,-0.005 -0.032,0.005 -0.028,0 -0.137,0.02 -0.057,0.032 -0.066,0 -0.056,0.029 -0.058,0.023 c -0.432,0.159 -0.548,0.587 -0.596,0.992 l 0.032,0.143 0.008,0.063 0.054,0.122 c 0.758,1.104 2.016,2.088 2.985,3.044 l 0.111,0.095 0.031,0.005 0.013,0.044 0.076,0.067 c 0.203,0.193 0.479,0.396 0.675,0.591 l 0.075,0.056 0.122,0.088 c 0.157,0.141 0.319,0.279 0.489,0.407 l 0.036,0.065 0.062,0.024 c 0.106,0.057 0.164,0.158 0.273,0.229 l 0.216,0.191 0.105,0.082 0.072,0.033 0.034,0.036 0.061,0.077 0.069,0.05 0.234,0.199 0.111,0.094 0.035,0.055 0.039,0.061 0.105,0.044 0.082,0.07 0.144,0.146 0.038,-0.025 0.101,0.12 c 0.719,0.552 1.462,1.168 2.15,1.736 l 0.112,0.081 0,0.027 0.043,0.023 0.067,0.038 0.095,0.065 0.1,0.069 0.048,0.032 0.035,0.038 0.007,-0.021 0.024,0.036 c 0.201,0.121 0.196,0.136 0.364,0.272 l 0.025,0 0.012,0.023 0.059,0.027 0.04,0.038 0.038,0.041 0.079,0.056 0.093,0.052 0.034,0.023 0.038,0.024 0.033,0.046 0.042,0.012 0,0.013 0.151,0.095 0.144,0.122 c 0.212,0.151 0.304,0.189 0.506,0.368 l 0.097,0.05 0.064,0.057 0.053,0.056 0.052,0.021 0.053,0.033 0.044,0.029 0.06,0.038 0.038,0.06 0.042,0.03 0.123,0.058 0.043,0.045 0.035,0.038 c 0.118,0.049 0.193,0.151 0.288,0.201 0.095,0.059 0.155,0.141 0.251,0.198 l 0.201,0.165 c 0.106,0.047 0.11,0.102 0.234,0.178 l 0.115,0.079 c 0.094,0.061 0.171,0.158 0.296,0.194 l -0.015,0 0.024,0.02 c 0.203,0.146 0.369,0.293 0.584,0.421 l 0.08,0.03 0,0.008 -0.007,0.016 0,0.029 0.007,0.036 0,0.043 0.004,0.065 0.005,0.033 0.014,0.011 0,0.039 0.01,0.045 0,0.026 -0.024,0.036 0,0.059 0.033,0.031 -0.033,0.044 c -0.003,0.146 0.011,0.286 -0.005,0.435 l -0.048,0.136 -0.023,0 -0.057,-0.011 -0.037,-0.058 -0.071,-0.024 -0.068,-0.043 -0.066,-0.035 -0.029,-0.065 -0.078,-0.011 -0.05,-0.057 -0.032,-0.019 -0.011,-0.02 -0.071,-0.019 -0.022,-0.024 -0.042,-0.009 -0.071,-0.056 -0.102,-0.024 -0.102,0 -0.031,-0.026 -0.051,-0.013 0.022,-0.037 -0.073,0 -0.088,-0.033 -0.057,-0.025 0.05,-0.03 -0.082,0 -0.053,-0.014 -0.044,0.014 -0.04,0 -0.002,0.024 -0.042,0.006 -0.01,-0.025 c -0.235,-0.093 -0.272,-0.042 -0.463,-0.095 l -0.086,0.005 0,-0.017 -0.129,0 0,-0.005 -0.036,-0.016 0,0.021 -0.072,0 c -0.135,-0.011 -0.266,0.014 -0.389,0.062 l -0.07,0.012 0,-0.012 -0.042,0.026 -0.039,0.038 -0.116,0.038 -0.175,0.109 -0.023,-0.013 -0.006,0.03 c -0.374,0.28 -0.466,0.761 -0.497,1.202 l -0.018,0.082 0.023,0 -0.01,0.128 c 0.01,0.113 -0.013,0.215 0,0.318 l 0,0.172 0.005,0.076 0.005,0.273 c -0.005,0.121 10e-4,0.228 10e-4,0.348 l -0.011,0.078 -0.033,0.063 0,0.158 0.014,0.073 0,0.087 0.006,0.082 0.033,0.07 0.022,0.07 0,0.085 c 0,0.092 0,0.174 0.02,0.264 0.004,0.088 0,0.173 0.004,0.267 l 0.015,0.12 0,0.032 0.013,0.019 c -0.026,0.261 0.076,0.174 0.048,0.344 l 0.005,0.055 0.023,0.123 c -0.003,0.154 0.087,0.461 0.116,0.628 l 0.045,0.122 0.022,0.101 0.028,0.089 0.013,0.071 c 0.067,0.109 0.103,0.231 0.139,0.361 l 0.027,0.044 0.018,0.05 0.025,0.053 0.032,0.051 0.022,0.038 0.009,0.023 0.013,0.021 0.014,0.014 0.007,0.038 0.028,0.043 0.045,0.047 0.01,0.048 0.016,0 0.023,0.065 c 0.17,0.225 0.302,0.45 0.47,0.662 l 0.019,0.03 0.028,0 0.02,0.05 0.031,0.043 0.08,0.073 c 0.094,0.071 0.36,0.317 0.474,0.353 l 0.025,0.013 0.032,0.021 0.019,0.012 0.05,0.044 0.04,0.043 0.038,0.029 0.094,0.028 0.063,0.036 0.066,0.011 0.035,0.024 0.056,0.02 c 0.185,0.038 0.202,0.085 0.391,0.102 l 0.058,0.013 0.055,0 0.058,-0.025 0.046,0 0.056,-0.027 0.057,-0.012 0.06,-0.026 0.016,-0.036 0.044,-0.033 0.022,-0.053 0,-0.051 0,0.015 0.021,-0.063 0.014,-0.051 -0.007,-0.12 -0.028,-0.09 -0.022,-0.027 0.032,-0.05 -0.051,-0.127 0.007,-0.046 -0.032,-0.043 -0.006,-0.088 -0.063,-0.057 -0.022,-0.038 -0.01,-0.032 0,-0.044 -0.056,-0.018 -0.014,-0.051 -0.018,-0.042 -0.046,-0.073 -0.044,-0.034 -0.056,-0.045 -0.051,-0.025 0.002,-0.023 -0.01,0 -0.009,-0.006 -0.086,-0.104 -0.038,-0.127 -0.029,0 -0.08,-0.083 0,0.005 -0.044,-0.06 -0.031,-0.052 -0.01,-0.082 0.003,0 -0.042,-0.071 -0.049,-0.024 c -0.098,-0.25 -0.166,-0.502 -0.311,-0.73 l -0.033,-0.155 -0.036,-0.138 -0.031,-0.051 -0.019,-0.069 -0.01,-0.059 -0.009,-0.071 -0.051,-0.095 -0.013,-0.058 -0.016,-0.196 -0.011,-0.08 0.011,-0.066 -0.009,-0.032 0.025,-0.014 0.026,-0.062 0.038,-0.134 -0.051,-0.114 -0.006,-0.044 -0.032,-0.045 0,-0.095 -0.013,-0.049 0.011,-0.083 -0.011,-0.136 -0.035,-0.253 0.001,-0.139 -0.016,-0.11 -0.038,-0.05 0,-0.069 0.019,-0.062 0.019,-0.117 -0.019,-0.032 0.025,-0.044 c -0.036,-0.965 0.436,-1.256 1.233,-0.71 l 0.014,0.043 0.024,-0.007 0.064,0.052 0.123,0.146 0.073,0.062 c 0.11,0.142 0.153,0.301 0.178,0.458 l 0.032,0.127 0.022,0.051 0,0.064 0.049,0.269 0.013,0.132 0.02,0.153 0.028,0.044 0,0.076 0.019,0.189 0.007,0.128 0.013,0.104 0.017,0 0,0.119 c 0.044,0.313 0.088,0.623 0.088,0.941 l -0.005,0.07 0.009,0.007 0,0.164 -0.032,0.013 0.013,0.051 0.053,0.032 0,0.095 c 0.159,0.887 0.076,2.28 0.335,3.062 l 0.01,0.007 0,0.044 0.053,0.038 -0.007,0.013 0.007,0 c 0.221,0.243 0.053,0.098 0.323,0.287 l 0.067,0.01 0.002,0.035 0.073,0.006 c 0.406,0.2 0.967,0.116 1.155,-0.338 l 0.007,-0.045 0.056,-0.006 -0.012,-0.019 -0.051,-0.019 0.031,-0.038 -0.024,-0.051 0,-0.135 -0.023,-0.06 0.023,-0.047 0.009,-0.052 -0.016,-0.03 0,-0.044 0.013,-0.102 0.05,-0.033 -0.012,-0.043 -0.067,-0.028 0.016,-0.057 0.013,-0.043 0.018,-0.062 -0.031,-0.059 -0.031,-0.13 0,-0.059 0.015,-0.052 -0.019,-0.043 0.035,-0.051 -0.045,-0.096 0.01,-0.045 0.004,-0.05 0,-0.063 0.031,-0.058 -0.016,-0.064 0,-0.026 -0.019,-0.006 0,-0.103 -0.022,0.022 -0.025,-0.047 0.028,-0.076 -0.028,0.015 -0.01,-0.076 -0.01,-0.066 0.055,0.022 -0.064,-0.085 0,-0.153 -0.009,-0.089 -0.031,-0.069 0.028,-0.069 -0.038,-0.066 0.02,-0.029 -0.01,-0.026 0,-0.101 -0.01,-0.181 0,-0.1 -0.009,-0.095 c -0.014,-0.121 -0.014,-0.236 -0.024,-0.355 0,-0.136 -0.034,-0.269 -0.036,-0.403 l -0.004,-0.099 0,-0.128 -0.022,-0.12 0,-0.094 -0.022,-0.023 0,-0.047 -0.013,-0.092 -0.006,-0.176 c -0.004,-0.225 -0.037,-0.358 -0.061,-0.567 l 0,-0.119 -0.005,-0.065 0.051,-0.013 -0.036,-0.025 -0.025,-0.059 0,-0.061 -0.01,-0.174 -0.005,-0.079 -0.018,-0.033 0.033,-0.024 -0.015,-0.027 -0.018,-0.038 -0.006,-0.09 0.006,-0.089 0.043,-0.062 0,-0.052 0.005,-0.019 0,-0.033 -0.015,-0.043 0.015,-0.052 -0.03,-0.102 -0.024,-0.036 0.039,-0.038 -0.039,0 0.024,-0.119 0,-0.052 -0.028,-0.104 0.033,-0.075 -0.005,-0.025 0.015,-0.019 -0.01,-0.033 -0.005,-0.049 -0.028,-0.032 0.01,-0.021 0,-0.028 -0.01,-0.061 -0.023,-0.108 0,-0.247 0.009,-0.107 -0.009,-0.115 0.009,-0.049 -0.009,-0.057 0,-0.06 -0.015,-0.038 0.015,-0.104 0.117,0.036 c 0.275,0.242 0.603,0.422 0.932,0.603 l 0.051,0.029 c 0.099,0.09 0.209,0.148 0.313,0.212 0.176,0.115 0.347,0.215 0.522,0.324 0.091,0.062 0.175,0.128 0.281,0.18 0.102,0.042 0.18,0.125 0.282,0.157 l -0.004,0.01 0.067,0.052 0.057,0.045 c 0.252,0.131 0.444,0.286 0.713,0.414 l 0.094,0.057 0.022,0.025 0.062,0.05 0.089,0.052 0.114,0.069 0.107,0.04 0.121,0.05 0.098,0.062 0.028,0.04 0.047,0.012 0.096,0.07 0.031,0.012 -0.005,0.013 0.068,0.045 0.045,-0.026 0.049,0.019 0.064,0.026 0.044,0.031 0.077,0.065 0.041,0.006 0.009,0.019 0.034,0.011 0.011,0.021 0.03,0.005 0.022,0 0.039,0.051 0.051,0.006 0.058,0.04 0.038,0.026 0.06,0.029 0.038,0.036 0.059,0.028 0.059,0.034 0.089,0.049 0.221,0.152 0.108,0.064 0.054,0.007 0.045,0.037 0.088,0.072 0.107,0.042 0.209,0.096 0.085,0.07 0.128,0.077 0.22,0.126 0.234,0.121 0.048,0.033 0.058,0.026 0.018,0.012 0.03,-0.008 0.027,0.044 c 0.314,0.148 0.576,0.329 0.879,0.49 l 0.057,0.012 -0.016,0.015 0.095,0.063 0.227,0.121 0.049,0.026 0.058,0.039 0.122,0.055 c 0.163,0.075 0.309,0.189 0.468,0.274 l 0.224,0.107 c 0.273,0.165 0.542,0.338 0.813,0.502 L 7.058,-6.513 7.013,-6.463 6.9,-6.4 6.856,-6.362 C 6.75,-6.27 6.669,-6.195 6.641,-6.063 l -0.032,0.04 -0.025,0.05 c -0.083,0.287 -0.028,0.536 -0.048,0.788 l 0,0.062 0.012,0.069 -0.02,0.065 0.02,0.09 0,0.088 0.02,0.026 0.016,0.017 0.009,0.078 -0.009,0.154 0.009,0.132 0.016,0.141 -0.016,0.126 -0.045,0.116 0.045,0.164 -0.009,0.064 0.02,0.056 0.037,0.115 0,0.031 -0.027,0.027 -0.01,0.074 0,0.034 -0.02,0.011 0.02,0.076 0.037,0.045 -0.009,0.059 -0.023,0.004 0,0.063 0.012,0.034 0.02,0 0.015,0.068 0,0.161 c 0.003,0.095 0.008,0.197 0.018,0.291 l 0,0.141 0.01,0.119 -0.01,0 -0.018,0.028 0.018,0.011 0.01,0.052 0,0.147 c -0.01,0.095 0,0.2 0,0.309 0,0.097 0,0.183 -0.01,0.274 l 0,0.097 -0.018,0.003 -0.024,0.057 -0.028,0.067 -0.207,0.133 -0.133,0 L 6.236,-1.203 6.223,-1.206 6.2,-1.188 6.156,-1.183 6.1,-1.203 5.998,-1.206 5.901,-1.27 C 5.731,-1.335 5.584,-1.454 5.441,-1.569 l -0.012,-0.04 0,-0.045 L 5.341,-1.697 5.311,-1.824 5.26,-1.857 5.214,-1.895 5.115,-1.981 5.049,-2.045 5.025,-2.051 5.009,-2.022 4.971,-2.033 5.009,-2.085 4.987,-2.199 4.888,-2.269 4.833,-2.293 4.826,-2.339 4.82,-2.473 4.803,-2.522 l -0.02,-0.059 -0.013,0 0.005,-0.024 -0.005,-0.025 -0.036,0 -0.017,-0.019 0.01,-0.051 -0.01,-0.063 0,-0.106 L 4.702,-2.891 4.717,-2.948 4.677,-2.991 4.655,-3.057 4.717,-3.071 4.677,-3.147 4.662,-3.16 4.625,-3.16 4.584,-3.119 4.598,-3.164 4.565,-3.169 4.559,-3.198 4.625,-3.254 4.662,-3.265 4.625,-3.298 4.598,-3.335 4.631,-3.38 4.545,-3.417 l 0.067,-0.016 0.025,-0.03 -0.092,-0.02 -0.067,-0.07 0.029,-0.051 0,-0.057 0.021,-0.038 -0.017,-0.063 0.048,-0.043 0.014,-0.026 0.011,-0.079 -0.056,-0.075 -0.05,0 0.026,-0.017 -0.082,-0.054 0.033,-0.068 -0.008,-0.019 -0.057,0.019 0,-0.052 0.012,-0.005 -0.012,-0.052 0.032,-0.03 0.056,-0.069 0.033,-0.021 -0.007,-0.013 0.014,-0.057 -0.04,-0.025 0.033,-0.04 0,-0.048 -0.007,-0.044 0.03,-0.027 0,-0.033 L 4.478,-4.666 4.43,-4.67 4.422,-4.595 4.402,-4.631 4.395,-4.67 4.422,-4.703 4.376,-4.768 4.352,-4.841 4.383,-4.855 4.422,-4.879 4.43,-4.93 l -0.047,0 -0.031,-0.033 0,-0.038 -0.007,-0.033 0.007,-0.113 -0.007,-0.102 -0.007,-0.14 0,-0.067 -0.012,-0.059 0.044,-0.033 -0.044,-0.056 0.044,-0.013 0.032,0.032 0.02,-0.006 0,0.006 0.015,-0.006 -0.02,-0.084 -0.065,-0.038 0.031,-0.044 -0.031,-0.028 0,-0.055 0.038,-0.045 0.032,-0.019 0,-0.032 -0.096,-0.019 0.076,-0.037 0.035,-0.011 0.01,-0.066 -0.052,-0.081 0,-0.022 L 4.402,-6.197 4.39,-6.253 4.352,-6.311 4.37,-6.317 4.376,-6.347 4.395,-6.413 4.39,-6.463 4.326,-6.368 4.352,-6.463 4.37,-6.551 4.417,-6.616 4.402,-6.705 4.352,-6.722 4.352,-6.761 4.326,-6.774 4.284,-6.823 4.25,-6.87 4.25,-6.914 4.231,-6.926 4.222,-6.964 4.212,-7.002 4.222,-7.041 4.186,-7.059 4.174,-7.087 4.146,-7.092 l 0,-0.03 0.015,-0.038 0,-0.077 -0.082,-0.071 0.011,0 L 4.034,-7.315 3.981,-7.386 3.951,-7.41 3.942,-7.441 3.906,-7.454 3.87,-7.459 3.817,-7.504 C 3.759,-7.549 3.497,-7.664 3.416,-7.721 l -0.172,-0.07 -0.177,-0.032 -0.158,0.007 -0.022,-0.007 -0.06,0.007 -0.073,0.02 -0.158,0.075 -0.109,0.121 -0.024,0.076 -0.022,0.037 0,0.014 -0.016,0.019 -0.024,0.165 0,0.077 c 0.008,0.167 -0.016,0.338 0.024,0.503 l -0.013,0.043 -0.011,0.027 c 0.036,0.166 0.043,0.481 0.04,0.666 l 0.007,0.102 0.002,0.101 0.013,0.013 -0.015,0.008 0.015,0.068 c 0.013,0.322 0.028,0.633 0.038,0.959 l 0.019,0.032 -0.033,0.024 0.033,0.071 0,0.059 0.02,0.107 -0.006,0.057 -0.014,0.092 0.014,0.099 -0.014,0.082 0.025,0.084 0,0.051 0.01,0.19 c 0.019,0.288 0,0.545 0.033,0.832 l 0.004,0.179 0.01,0.231 c 0.012,0.105 0.021,0.193 0.032,0.283 l 0.01,0.147 c 0.038,0.375 0.275,0.886 0.597,1.105 l 0.032,0.004 0.003,0.022 0.065,0.038 0.108,0.069 0.127,0.071 0.038,0.005 0.057,0.026 0.126,0.031 0.282,0.037 0.143,-0.004 0.13,0 0.043,0.031 0.052,0.033 0.137,0.005 0.047,0 0.046,-0.033 0.04,-0.032 0.086,0 0.06,-0.018 0.053,-0.019 0.114,0.019 0.077,0 0.049,0.018 0.058,0.045 0.061,0.015 0.104,0.044 0.096,0.07 0.03,0.035 0.051,0.04 0.085,0.07 0.038,0.063 0.044,0.026 0.026,0.039 0,0.009 0.152,0.175 0.056,0.038 L 5.998,0 6.074,0.089 6.156,0.178 6.223,0.227 6.236,0.279 6.333,0.349 6.447,0.412 6.659,0.539 6.78,0.604 6.856,0.639 C 7.228,0.806 7.688,0.89 8.07,0.671 L 8.118,0.634 8.164,0.59 8.24,0.496 8.294,0.528 8.278,0.483 8.294,0.438 8.339,0.393 8.355,0.349 8.361,0.248 8.417,0.268 8.401,0.216 8.427,0.101 8.43,0.041 8.481,0.02 l 0.054,-0.083 -0.077,0 0,-0.14 0.032,-0.059 0.045,-0.068 0.06,0 -0.008,-0.027 -0.027,-0.044 0,-0.084 0.011,-0.044 0.017,-0.018 0.028,-0.005 -0.006,-0.028 -0.039,0 -0.011,-0.01 -0.059,0 -0.033,-0.044 -0.019,-0.128 0,-0.084 0.029,-0.037 -10e-4,-0.05 -0.028,-0.027 0.009,-0.051 0.049,0.014 0.07,0.047 -0.006,-0.021 -0.011,-0.022 0,-0.176 0.035,-0.034 -0.008,-0.036 -0.052,0.033 -0.028,-0.044 0.028,-0.041 0,-0.048 -0.045,-0.021 0.045,-0.022 -0.019,-0.024 0,-0.035 -0.004,-0.022 0.023,-0.062 0.025,-0.077 0.027,-0.052 -0.01,-0.009 0,-0.028 -0.07,0 L 8.449,-1.68 8.44,-1.818 8.507,-1.862 8.535,-1.908 8.478,-1.924 8.44,-1.972 l 0,-0.061 0.037,0 10e-4,-0.026 0.057,-0.033 -0.028,-0.01 -0.077,0 0,-0.103 0.01,-0.033 -0.013,-0.055 0.003,-0.153 -0.003,-0.159 -0.01,-0.147 0.01,-0.139 0.003,-0.082 0.032,-0.04 0.028,-0.044 -0.012,-0.046 -0.051,0 0.003,-0.028 0,-0.074 0.017,-0.049 0.031,-0.031 -0.051,-0.024 0.003,-0.026 -0.003,-0.045 0,-0.033 0.003,-0.038 0.082,-0.032 0.004,-0.05 -0.039,-0.038 0.013,-0.045 0.017,-0.025 0.009,-0.045 0.019,-0.025 0,-0.019 -0.019,-0.032 0,0.051 -0.026,-0.034 -0.013,-0.029 -0.019,-0.047 0.02,-0.036 0,-0.145 -0.048,0.005 -0.003,-0.024 0,-0.052 0.003,-0.041 -0.013,-0.016 0.041,-0.013 0.02,0.051 0.029,-0.032 0,-0.052 -0.06,0 L 8.44,-4.215 8.478,-4.238 8.427,-4.25 8.458,-4.338 8.512,-4.353 8.49,-4.404 8.44,-4.398 8.43,-4.448 8.449,-4.498 8.43,-4.549 l 0,-0.046 0.01,-0.027 -0.01,-0.009 0.047,-0.021 0.058,-0.014 -0.028,-0.089 0,-0.062 0.053,0 0.011,-0.024 0.024,-0.007 0.015,-0.051 -0.075,-0.082 -0.019,-0.02 0.028,-0.013 -0.028,-0.011 0.028,-0.033 0.044,0.024 0.046,-0.043 0,-0.121 0.044,-0.012 -0.005,-0.028 -0.019,-0.016 0.037,-0.028 0.081,-0.013 0.041,-0.081 0.068,-0.044 0,-0.019 0.077,-0.027 0.079,0 0.232,0.069 0.116,0.031 0.092,0.056 0.049,0.005 0.105,0.056 0.103,0.044 0.044,0.014 0.056,0.044 0.021,0 0.005,0.014 0.028,0 0.042,0.022 0.043,0.029 0.022,-0.023 0,0.028 0.075,0.032 0.04,0.02 0.033,0.024 0.08,0.05 0.025,-0.012 0.045,0.051 0.047,0.013 0.022,0.02 0.038,0.018 0.139,0.065 0.077,0.056 0.094,0.05 0.086,0.05 0.024,-0.006 0.064,0.039 0.018,-0.007 0.02,0.007 0.035,0.038 0.091,0.057 0.222,0.089 0.035,0.019 0.119,0.038 0.104,0.013 0.071,0.021 0.028,0.018 0.013,-0.014 c 0.512,0.032 0.253,-0.022 0.685,-0.055 l 0.065,0 -0.02,0.03 0.059,0 0.018,-0.051 0.081,-0.032 -0.025,0.038 0.053,-0.031 c 0.142,-0.139 0.165,-0.241 0.285,-0.356 l 0,-0.063 0.02,-0.013 0,-0.033 0.032,-0.03 -0.027,-0.057 0.045,-0.02 0.022,-0.024 -0.01,-0.02 -0.009,-0.024 m -24.358,-2.583 0.014,0.022 c 0.544,0.084 0.463,0.045 0.976,0.251 l 0.095,0.033 -0.012,0.015 -0.031,-0.015 0.053,0.031 0.01,0.007 0.037,0.019 0.072,0 0.057,0.052 0.039,0.025 0.05,0.018 0.03,0.007 0.02,0.007 0.018,-0.014 0.057,0.034 -0.033,0.023 0.053,0.015 0,0.024 0.012,0 0.006,-0.046 0.033,0.022 0,0.035 0.056,-0.005 0.044,0.019 0.014,0.014 0.012,0.005 0.012,0.013 0.07,0.008 0.057,0.019 0.063,0.012 0.085,0 0.017,0.005 0.14,-0.025 0.059,-0.019 c 0.103,-0.06 0.261,-0.269 0.278,-0.389 l 0.022,-0.043 0.013,-0.014 -0.003,-0.006 0.003,-0.016 0.016,-0.015 0,-0.006 0.009,-0.018 0.029,-0.052 0.009,0 -0.02,-0.044 0.045,-0.051 -0.025,-0.078 -0.02,-0.057 0.011,-0.139 -0.029,-0.108 -0.025,-0.032 -0.008,-0.056 -0.046,-0.034 -0.025,-0.034 -0.032,-0.09 -0.133,-0.129 -0.04,-0.025 -0.017,-0.026 -0.021,0 -0.077,-0.069 -0.079,-0.049 -0.051,-0.042 -0.038,-0.035 -0.023,-0.008 -0.016,-0.011 -0.038,-0.045 -0.074,-0.07 -0.086,-0.044 -0.056,-0.052 -0.054,-0.05 0.004,-0.008 -0.038,-0.02 -0.027,-0.024 -0.018,-0.026 -0.032,0 -0.021,-0.019 -0.021,-0.019 -0.034,-0.05 -0.047,-0.027 0.01,0 0,-0.004 -0.05,-0.014 c -0.151,-0.259 -0.416,-0.469 -0.481,-0.769 l 0.028,-0.058 -0.089,-0.063 -0.014,-0.061 0.052,-0.028 -0.058,-0.019 -0.012,-0.069 c 0.052,-0.201 -0.137,-0.117 -0.043,-0.465 l -0.007,-0.025 -0.028,0 -0.042,-0.025 -0.041,-0.033 0.032,-0.056 -0.018,-0.031 -0.017,-0.038 0.017,-0.05 -0.017,-0.07 -0.008,-0.066 -0.008,0 0.008,-0.011 -0.008,-0.027 0.016,-0.009 -0.016,-0.11 0,-0.177 0.019,-0.052 -0.036,-0.089 -0.012,-0.134 -10e-4,-0.089 0.006,-0.07 -0.012,-0.057 -0.011,-0.133 0,-0.204 c -0.014,-0.219 -0.007,-0.434 -0.039,-0.654 l 0.01,-0.101 0.019,-0.02 -0.029,-0.032 0.023,-0.082 0.006,-0.09 -0.035,-0.062 -0.008,-0.128 -0.02,-0.043 0,-0.327 -0.032,-0.144 -0.015,-0.077 -0.019,-0.033 0.016,-0.044 -0.051,-0.089 -0.045,-0.101 -0.063,-0.095 -0.044,-0.102 -0.041,-0.044 -0.035,-0.025 -0.101,-0.122 -0.034,-0.038 -0.011,-0.037 -0.06,0 -0.033,-0.033 -0.049,-0.025 -0.024,-0.038 -0.051,-0.025 -0.044,-0.012 -0.019,-0.028 -0.026,-0.01 -0.019,-0.012 -0.022,-0.016 -0.047,-0.031 -0.089,-0.049 -0.114,-0.046 -0.051,-0.004 -0.082,-0.038 -0.098,-0.028 -0.047,0 -0.027,-0.023 -0.032,-0.007 -0.204,0 -0.062,0.038 -0.06,0.02 0,0.038 -0.017,0.004 -0.04,0.019 -0.016,0.01 -0.005,0.017 -0.015,0.017 -0.025,0.032 -0.054,0.059 -0.015,0.038 0,0.037 -0.036,0.013 -0.009,0.05 -0.012,0.033 0,0.058 -0.03,0.046 -0.008,0.131 -0.019,0.139 0.019,0.136 0,0.138 -0.019,0.133 0.019,0.053 c -0.104,0.284 0.087,0.069 0.038,0.636 l 0,0.143 0.012,0 0,0.007 -0.012,0.14 -0.019,0.057 -0.019,0.037 0.019,0.058 0,0.068 0.019,0.079 0,0.057 0.012,0.047 0.009,0.06 0.027,0.028 0,0.035 -0.027,0.045 -0.009,0.115 -0.012,0.062 0.038,0.052 0,0.066 0.01,0.157 -0.01,0.064 0,0.056 0.01,0.108 0.033,0.133 0.039,0.052 0,0.024 c 0.029,0.671 0.106,1.296 0.113,1.976 l 0.006,0.123 0.005,0.22 c 0.015,0.084 0.022,0.172 0.048,0.265 l 0.036,0.137 0.038,0.12 -0.013,0.066 0.057,0.104 0.038,0.128 0.051,0.097 0.022,0.043 0.031,0.014 0.005,0.021 0.064,0.072 0.074,0.084 0.174,0.15 c 0.179,0.135 0.189,0.1 0.348,0.188 l 0.145,0.062 0.149,0.047 0,-0.009 0.032,-0.013 m -2.823,-2.355 -0.141,-0.059 -0.011,-0.158 0.052,-0.15 0.05,-0.092 0.018,-0.025 -0.029,-0.05 -0.022,-0.104 0.045,-0.088 -0.023,-0.088 -0.08,-0.134 -0.011,-0.084 0.025,-0.043 -0.014,-0.033 0,-0.132 -0.028,-0.093 0.009,-0.059 -0.023,-0.05 c -0.078,-0.603 -0.113,-0.26 -0.112,-1.032 l 0,-0.227 -0.049,-0.025 0,-0.065 -0.025,-0.157 -0.024,-0.047 -0.005,-0.114 0.005,-0.131 -0.005,-0.127 -0.02,-0.109 -0.034,-0.051 -0.004,-0.064 -0.009,0 0,-0.141 -0.036,-0.1 0.005,-0.127 -0.036,-0.115 -0.009,-0.132 -0.005,-0.058 -0.012,-0.065 -0.007,-0.139 -0.005,-0.057 -0.028,-0.052 0.006,-0.136 0.022,0 0,-0.08 -0.022,-0.025 -0.028,-0.075 0.012,-0.028 0.01,-0.082 -0.022,-0.124 0.028,-0.188 0.008,-0.076 -0.014,-0.068 -0.029,-0.095 -0.024,-0.062 0,-0.008 0.016,-0.032 -0.016,-0.076 -0.012,-0.129 0,-0.068 -0.023,-0.057 -0.012,-0.141 -0.069,-0.113 0,-0.097 0.018,-0.018 c 0.063,0 0.119,0.051 0.114,-0.051 l -0.026,-0.083 -0.012,-0.017 -0.049,-0.021 -0.061,0.05 -0.037,-0.12 -0.108,-0.018 c -0.251,-0.198 -0.485,-0.437 -0.793,-0.541 l -0.038,-0.057 -0.114,0 -0.057,-0.032 -0.057,0.008 -0.224,0.057 -0.108,0.029 -0.044,0.028 -0.033,0.039 -0.06,0.086 -0.029,0.102 -0.027,0.11 c -0.013,0.435 0.001,0.823 0.025,1.256 l -0.004,0.121 0.006,0.116 c -0.002,0.146 0.025,0.29 0.025,0.437 l 0.004,0.19 -0.015,0 0,0.066 0.033,0.241 0.042,0.221 -0.012,0.126 0.021,0.114 c 0,0.023 -0.084,0.232 0.024,0.16 l 0.017,0.183 0.002,0 -0.007,0.16 0,0.155 c 0.051,0.131 0.032,0.316 0.045,0.449 l -0.007,0.09 c 0.018,0.187 0.064,0.621 0.032,0.783 l 0.037,0.232 c 0,0.103 0.021,0.187 0.014,0.286 -0.007,0.102 0.019,0.179 0.03,0.268 l 0.02,0.217 0.01,0.031 0.041,0.158 0.066,0.159 c 0.056,0.141 0.101,0.279 0.166,0.42 l 0.125,0.178 0.133,0.146 0.075,0.096 0.051,0.045 0.065,0.025 -0.025,0.014 0.112,0.068 0.117,0.088 c 0.122,0.081 0.272,0.142 0.405,0.187 l 0.231,0.05 0.143,-0.022 0.096,-0.016 0.081,-0.089 0.066,-0.079 0.059,-0.174 0.036,-0.085 0.015,-0.045 0.012,-0.013 -0.021,-0.126 0.121,-0.101 m 0.789,4.459 -0.029,-0.037 0,-0.047 0.022,-0.004 -0.024,-0.045 0.031,-0.04 -0.029,0 -0.002,-0.028 -0.016,-0.039 -0.017,-0.071 -0.061,-0.077 -0.008,-0.019 -0.02,-0.014 0,-0.034 -0.025,-0.02 -0.027,-0.06 -0.051,-0.051 -0.034,-0.029 -0.061,-0.034 0.022,-0.044 -0.022,-0.017 -0.012,-0.028 -0.076,-0.061 -0.051,-0.03 -0.025,-0.047 -0.019,-0.02 -0.054,-0.036 -0.078,-0.058 -0.028,-0.033 -0.049,-0.011 -10e-4,-0.019 -0.044,-0.018 -0.051,-0.02 -0.011,-0.015 -0.022,-0.018 -0.038,-0.028 -0.039,-0.034 -0.023,-0.009 -0.008,-0.004 -0.051,-0.019 -0.034,-0.039 -0.068,-0.051 -0.063,-0.017 -0.028,-0.041 -0.04,0 0.01,0.011 -0.067,-0.023 -0.009,-0.021 -0.029,-0.006 -0.065,-0.011 -0.063,0.017 0,0.016 -0.027,-0.016 -0.042,0 -0.047,0.009 -0.002,0.012 -0.061,-0.021 -0.023,0.021 0.023,0.023 -0.067,0.022 -0.041,0 -0.019,0.02 -0.05,0.038 -0.026,0.076 -0.031,0.013 -0.028,0.057 -0.004,-0.013 -0.013,0 -0.006,0.024 -0.025,0.084 0,0.061 -0.027,0.026 0.018,0.032 -0.013,0.05 0.013,0.022 -0.018,0.013 0.005,0.031 0.013,0.074 0.009,0.082 0.016,0.028 0.015,0.036 0.033,0.064 0.001,0.066 0.023,0.024 0.007,0.026 0.025,0.043 0.038,0.06 0.011,0.049 0,0.064 0.052,0.037 c 0.194,0.28 0.707,0.71 1.036,0.795 l 0.062,0 0.002,0.02 0.038,0.006 0.057,0.018 0.165,0 0.006,-0.006 0.02,0.006 0.04,-0.006 0.023,-0.012 0.025,-0.006 0.047,-0.02 0,-0.025 0.056,-0.043 0.025,-0.034 0.006,-0.053 0.022,-0.023 0,-0.034 0.019,-0.017 0.005,-0.038 0.005,-0.05 0.049,-0.079 0.04,-0.061 0,-0.058 0.007,-0.134 m -4.844,-6.042 0.02,0.025 c 0.072,0.03 0.096,0.368 0.067,0.432 l 0,0.033 -0.027,0.018 -0.008,0.058 c -0.008,0.095 0.04,0.184 0.052,0.278 l 0.01,0.072 0.019,0.029 0.028,-0.005 0.062,0.043 0.024,0.071 0.003,0.052 -0.027,0.018 -0.019,0 0,0.033 0.046,0.043 0.025,0.065 -0.015,0.03 -0.013,0.033 0.013,0.051 0.015,0.057 0.019,0.019 -0.01,0.031 -0.024,0.043 0.015,0.059 0.019,0.077 0.005,0.063 0.027,0.082 0.012,0.032 0.007,0.026 0.012,0.033 0.009,0.1 0.01,0.039 0.007,0.005 -0.007,0.007 0.007,0.024 0.011,0.051 0.014,0.066 0.025,0.052 0,0.073 0.026,0.064 0,0.057 0.028,0.066 0.003,0.048 0,0.074 0.014,0.028 0.023,0.021 -0.011,0.05 0.015,0.019 0.004,0.043 0.019,0.059 0.029,0.14 0.03,0.067 0.024,0.047 -0.021,0.037 0.021,0.026 -0.01,0.006 0.004,0.019 0.029,0.095 0,0.073 0.014,0.022 0,0.028 0.013,0.074 0.018,0.028 0.008,0.036 0.008,0.04 0.009,0 0.016,0.018 0.01,0.076 0,0.039 0.03,0.011 -0.008,0.051 0.008,0.019 0,0.039 0.017,0.024 0.012,0.033 0.01,0.032 0.004,0.019 0,0.044 0.019,0.052 0.019,0.055 0.019,0.052 0.006,0.026 0.005,0.036 0.014,0.033 -0.007,0.038 0.013,0.026 0.008,0.036 0.017,0.034 0.013,0.018 -0.003,0.014 0.015,0.058 0.023,0.024 0.012,0.011 0.019,0 -0.003,0.022 0.003,0.043 0.038,0.038 0.022,0.046 0,0.05 0.019,0.106 0.042,0.039 0.015,0.071 0.013,0.071 0.084,0.075 0.004,0.031 0.009,0.02 0,0.051 0.007,0.077 0.035,0.05 0.014,0.039 10e-4,0.017 0.012,0.012 0.011,0.066 0.014,0.071 0.019,0.069 0.038,0.054 0.047,0.06 0.029,0.005 0.019,0.019 0.051,0.045 0.004,0.038 0.002,0.038 0.014,0.023 0.015,0.028 0.033,0.052 0.015,0.039 0.012,0.018 0,0.133 0.02,0.057 -0.011,0.033 -0.009,0.025 0.009,0.074 0,0.077 0.011,0.032 0,0.026 0.013,0.078 0.012,0.073 0,0.033 0.013,0.039 -0.006,0.03 -0.002,0.033 0.021,0.02 0.006,0.03 0.019,0.064 -0.006,0.077 0.025,0.024 0,0.11 0.051,0.138 0.068,0.148 0.082,0.151 0.004,0.043 -0.009,0.035 0.028,0.078 0.042,0.138 0.019,0.075 0.009,0.077 0.025,0.069 0.008,0.044 0.035,0.027 0.046,0.057 0.037,0.121 0.045,0.026 0.019,0.044 0.003,0.044 -0.047,0.061 -0.007,0.103 0.016,0.019 0.016,0.037 0.032,0.077 0.017,0.084 0.005,0.044 0.022,0.033 0.045,0.035 0.018,0.052 0.006,0.046 -0.024,0.025 0.018,0.073 0.031,0.078 0,0.07 0.027,0.052 0.012,0.039 0.032,0.024 -0.023,0.013 -0.009,0.033 0.009,0.087 0.041,0.103 0.016,0.011 0.003,0.015 0.016,0.035 0.004,0.077 0.038,0.077 0.033,0.065 0.028,0.062 0,0.037 0.027,0.033 -0.009,0.04 0.009,0.036 0.03,0.02 0.01,0.038 -0.013,0.024 0.02,0.039 0.016,0.038 0.033,0.021 0,0.03 c 0.04,0.154 0.095,0.402 0.172,0.542 l 0.01,0.031 0.022,0.007 c 0.046,0.027 0.038,0.043 0.038,0.093 l 0.011,0.013 -0.011,0.015 0.011,0.029 0.008,0 0.015,0.015 0.023,0.017 0.006,0.034 -0.006,0.069 0.006,0.025 0.014,0.032 0.018,0.056 0,0.027 0.034,0.056 0,0.012 0.017,0.019 0,0.04 0.006,0.026 0.013,0.057 0.025,0.012 0.025,0.064 0,0.031 0.031,0.063 0.023,0.07 0.097,0.148 0.036,0.081 0.019,0.044 -0.012,0.033 0.062,0.07 0.017,0.094 c 0.06,0.048 0.09,0.098 0.104,0.173 l 0.019,0.062 -0.026,0.052 0.007,0.059 0.002,0.04 0.042,0.081 0.038,0.094 0.044,0.112 0.023,0.039 0.012,0.063 0.054,0.102 0,0.027 0.031,0.018 0.008,0.06 0.031,0.048 0,0.032 0.011,0.026 0.05,0.081 0.02,0.027 -0.012,0.032 0.022,0.012 0,0.024 0.029,0.064 0,0.02 0.071,0.146 c 0.038,0.102 0.093,0.197 0.124,0.286 l 0.08,0.165 0.012,0.052 c 0.096,0.189 0.151,0.349 0.253,0.541 l 0.006,0.035 0.013,0.013 0.018,0.044 0.03,0.071 0.048,0.076 0.013,0.038 0.047,0.084 0.042,0.075 0.044,0.033 0.044,0.031 0.038,0.114 0.021,0.063 0.048,0.027 0.034,0.081 -0.013,0.013 0.038,0.012 0.007,0.053 0.05,0.062 0.045,0.072 0.025,0.038 0.051,0.089 0.123,0.151 0.012,0.02 0.036,0.013 0.024,0.049 0.026,0.059 0.053,0.042 0.026,0.046 0.038,0.056 0.044,0.045 0.033,0.033 0.018,0.018 0.009,0.02 0.016,0.033 0.018,0.029 0.033,0.022 0.024,0.024 0.004,0.017 0.034,0.021 0.023,0.032 0.028,0.012 0,0.031 0.058,0.072 0.072,0 0.025,0.051 0.02,0.012 0.011,0.038 0.01,0.018 0,0.027 0.019,0.01 0.031,-0.032 -0.009,-0.018 -0.017,-0.005 0.018,-0.026 0.037,0.026 0.024,0.018 0.02,0.032 -0.01,0.051 0,0.039 0.034,0.019 0.014,0.039 0.013,-0.02 -0.01,-0.028 0.031,0 0.017,0.015 0,0.042 0.019,-0.009 0.006,0.029 0.019,0.015 0.026,0.005 0,0.008 0.035,-0.013 0,-0.015 0.022,0 0.01,0.02 0,0.008 0.028,0.023 0.012,0.026 0,0.04 0.018,0.023 0.027,0.006 0.011,0.025 0.007,0.035 0.02,0.06 -0.01,0.065 0.034,0.051 0.026,0 0,0.007 0.032,-0.007 -0.014,0.045 0.014,0.032 0.028,0.019 0.01,0.03 0,0.014 0.02,0 0.014,0.038 0.017,0.019 0,0.014 0.013,0.017 0.011,0.02 0.049,0.049 0.022,0.073 0.016,0.017 0.028,0.045 0.018,0 0,0.033 0.033,0.05 0.021,0.071 0.008,0.019 0.018,0.024 0.002,0.042 0.004,0.022 0.022,0.071 0.002,0.073 0.02,0.033 0.002,0.036 -0.018,0 -0.006,0.022 0.022,0.025 0,0.077 c -0.01,0.186 -0.019,0.331 -0.076,0.508 l 0,0.046 -0.029,0.049 c -0.069,0.171 -0.138,0.338 -0.271,0.471 l -0.051,0.037 -0.011,0.02 -0.018,0 -0.017,0.031 -0.023,0.006 -0.01,0.033 -0.017,0 -0.005,0.012 -0.035,0.021 -0.009,0.032 -0.041,0 c -0.073,0.071 -0.352,0.197 -0.442,0.201 l -0.013,0 -0.005,0.014 -0.072,0.031 -0.079,0 -0.082,0.031 -0.086,0 -0.082,0.018 -0.031,-0.005 -0.048,0.005 -0.034,-0.018 -0.038,0.018 -0.104,-0.018 -0.102,-0.005 -0.086,-0.051 -0.09,-0.02 -0.085,-0.037 c -0.141,-0.055 -0.248,-0.159 -0.375,-0.248 l -0.101,-0.095 -0.009,-0.02 -0.037,0 -0.017,-0.066 -0.061,-0.056 -0.028,0 -0.031,-0.038 -0.022,-0.056 -0.087,-0.09 -0.077,-0.102 -0.12,-0.178 -0.039,-0.106 -0.117,-0.171 -0.099,-0.199 C -14.732,6.735 -14.78,6.614 -14.818,6.478 L -14.91,6.272 -14.992,6.069 -15.081,5.826 -15.167,5.596 C -15.219,5.462 -15.285,5.338 -15.334,5.198 L -15.416,4.969 -15.485,4.752 C -15.538,4.615 -15.587,4.467 -15.637,4.334 L -15.704,4.201 -15.76,4.029 C -15.799,3.92 -15.84,3.805 -15.888,3.704 -15.931,3.579 -15.97,3.456 -16.02,3.336 -16.058,3.19 -16.127,3.037 -16.175,2.878 L -16.254,2.696 -16.324,2.479 -16.42,2.237 C -16.45,2.136 -16.478,2.027 -16.516,1.938 -16.561,1.83 -16.613,1.719 -16.654,1.606 -16.7,1.461 -16.752,1.321 -16.809,1.179 -16.942,0.842 -17.048,0.488 -17.155,0.14 l -0.046,-0.09 -0.026,-0.084 -0.051,-0.086 -0.054,-0.104 -0.048,-0.233 c -0.017,-0.116 -0.056,-0.185 -0.094,-0.285 l -0.052,-0.162 c -0.029,-0.089 -0.109,-0.189 -0.126,-0.299 l -0.08,-0.183 -0.051,-0.223 -0.035,-0.164 -0.071,-0.199 -0.05,-0.216 -0.089,-0.2 c 0,-0.091 -0.01,-0.151 0.005,-0.232 l -0.068,-0.114 -0.032,-0.135 -0.013,-0.132 -0.064,-0.146 c -0.05,-0.188 -0.097,-0.375 -0.159,-0.564 -0.029,-0.094 -0.04,-0.19 -0.077,-0.286 -0.015,-0.09 -0.07,-0.179 -0.098,-0.283 -0.05,-0.175 -0.088,-0.372 -0.124,-0.568 l -0.063,-0.206 0.019,-0.093 -0.057,-0.114 -0.033,-0.153 -0.087,-0.261 c -0.04,-0.196 -0.115,-0.388 -0.158,-0.583 -0.036,-0.155 -0.088,-0.305 -0.126,-0.451 l -0.022,-0.205 c -0.051,-0.229 -0.129,-0.443 -0.184,-0.666 l -0.025,-0.128 c -0.013,-0.102 -0.044,-0.191 -0.07,-0.288 -0.031,-0.144 -0.079,-0.279 -0.114,-0.43 l -0.038,-0.228 c -0.035,-0.141 -0.058,-0.294 -0.088,-0.431 l -0.047,-0.222 -0.043,-0.219 -0.028,-0.208 -0.056,-0.197 -0.038,-0.204 c -0.025,-0.102 -0.051,-0.202 -0.062,-0.312 -0.02,-0.094 -0.033,-0.171 -0.06,-0.266 l -0.02,-0.209 c -0.029,-0.102 -0.042,-0.199 -0.057,-0.319 -0.023,-0.208 -0.07,-0.426 -0.107,-0.646 -0.022,-0.084 -0.051,-0.186 -0.051,-0.286 -0.019,-0.142 -0.067,-0.286 -0.075,-0.431 l -0.037,-0.154 c -0.024,-0.116 -0.024,-0.225 -0.046,-0.344 -0.026,-0.19 -0.055,-0.419 -0.106,-0.611 l -0.033,-0.22 c -0.038,-0.275 -0.086,-0.547 -0.122,-0.834 -0.025,-0.121 -0.039,-0.262 -0.043,-0.387 l -0.029,-0.212 c -0.04,-0.225 -0.014,-0.37 -0.114,-0.591 l -0.038,-0.068 -0.03,0.063 -0.089,0.026 -0.025,0.063 0,0.063 0.007,0.179 -0.025,0.058 0.025,0.069 -0.121,0.088 0.025,0.05 c 0.005,0.444 -0.08,0.457 -0.07,0.782 l 0.032,0.128 c -0.042,0.132 0.013,0.101 0,0.152 l -0.042,0.121 -0.038,0.033 -0.034,0.062 -0.004,0.04 0.038,0.018 -0.018,0.007 -0.02,-0.02 -0.034,0.057 0.01,0.031 -0.004,0.05 0.066,0.051 -0.018,0.015 -0.025,-0.015 -0.048,-0.018 -0.041,0.006 0.01,0.04 -0.01,0.029 0,0.084 0.01,0.07 0.028,0.053 -0.028,0.043 0,0.03 0.022,0.057 0.009,0.047 0.019,0.063 0.01,0 0.019,0.037 0.025,0.038 c -0.017,0.106 -0.13,0.43 -0.187,0.528 l 0,0.05 -0.025,0.13 c 0.046,0.386 -0.106,0.309 -0.113,0.659 l -0.01,0.051 -0.01,0.036 0.053,0.021 0.023,0.044 -0.066,0.089 c -0.104,0.278 0.015,0.247 -0.178,0.655 l 0.004,0.039 -0.042,0.031 0,0.04 -0.024,0.024 -0.007,0.038 0.013,0.056 0.018,0.051 -0.062,0.031 -0.037,0.04 0,0.159 -0.027,0.056 0.027,0.089 -0.005,0.044 -0.04,0.025 -0.045,0.236 0.007,0.051 -0.013,0.058 -0.035,0.114 -0.016,0.088 -0.021,0.092 0.018,0.023 0.029,0.026 -0.039,0.019 -0.018,0.032 0.01,0.029 -0.01,0.027 -0.007,0.081 0.007,0.035 -0.007,0.026 -0.021,0.007 0,0.05 -0.017,0.038 -0.006,0.016 -0.006,0.013 0,0.033 0.012,0.024 -0.012,0.027 -0.008,0.05 0.037,0.038 0.021,0.033 -0.021,0.037 0,0.038 -0.017,0.046 0,0.045 -0.036,0.038 0.036,0.024 -0.017,0.033 0.034,0.031 -0.029,0.025 -0.07,0.025 -0.005,0.078 0.023,0.067 -0.005,0.015 -0.018,0.038 0,0.089 0.023,0.012 -0.023,0.018 -0.052,-0.018 0,0.014 -0.019,0.029 0.032,0.02 0.011,0.035 -0.024,0.009 -0.024,0.076 0.037,0.016 -0.013,0.022 -0.024,0.035 -0.024,0.031 -0.024,0.09 0.015,0.036 0.009,0.033 -0.036,0.082 -0.02,0.069 0,0.046 -0.01,0.044 -0.01,0.043 0,0.072 -0.018,0.121 -0.018,0.073 -0.023,0.085 -0.016,0.089 0,0.052 -0.004,0.051 -0.01,0.095 0,0.036 -0.024,0.04 0,0.101 -0.022,0.02 0.017,0.03 -0.029,0.082 -0.022,0.097 0.005,0.045 -0.021,0.05 -0.007,0.05 0,0.039 -0.016,0.024 0,0.103 -0.032,0.077 0,0.086 -0.006,0.097 -0.019,0.082 -0.006,0.07 c -0.111,0.458 -0.058,0.53 -0.286,0.986 l -0.022,0.02 -0.014,0.031 -0.045,0.037 c -0.786,0.754 -1.669,0.156 -1.883,-0.938 l -0.026,-0.091 -0.023,-0.031 0.013,-0.038 -0.026,-0.006 -0.007,-0.032 c -0.026,-0.084 -0.064,-0.18 -0.088,-0.273 l -0.029,-0.053 -0.002,-0.056 -0.042,-0.115 -0.034,-0.107 c -0.055,-0.126 -0.079,-0.28 -0.122,-0.413 l -0.081,-0.128 c -0.021,-0.319 -0.267,-0.671 -0.243,-0.869 l -0.057,-0.161 c -0.025,-0.089 -0.055,-0.176 -0.085,-0.272 l -0.075,-0.246 -0.058,-0.136 -0.054,-0.114 -0.04,-0.133 -0.02,-0.148 c -0.032,-0.093 -0.069,-0.174 -0.092,-0.277 -0.015,-0.097 -0.091,-0.153 -0.124,-0.224 l -0.047,-0.158 c 0.007,-0.241 -0.143,-0.362 -0.218,-0.654 l -0.019,-0.141 c -0.044,-0.115 -0.097,-0.224 -0.136,-0.33 -0.056,-0.145 -0.127,-0.266 -0.17,-0.408 l 0.025,-0.008 -0.025,-0.106 c -0.125,-0.262 -0.192,-0.541 -0.29,-0.813 l -0.078,-0.226 c -0.04,-0.155 -0.11,-0.321 -0.085,-0.486 l 0.083,-0.234 c 0.071,-0.109 0.181,-0.247 0.289,-0.311 l 0.182,-0.065 0.082,-0.031 0.178,0 0.067,0.024 0.099,0.007 0.052,0 0.044,0.022 c 0.132,0.054 0.268,0.11 0.36,0.227 l 0.03,0.037 0.021,0.046 0.088,0 -0.009,0.044 0.009,0.108 0.052,0.063 0.021,0.063 -0.003,0.052 0.013,0.019 0.036,0.037 0.011,0.07 0.029,0.033 0.002,0.069 0.064,0.097 0.019,0.052 -0.009,0.029 0.072,0.085 0.009,0.054 0.042,0.04 0,0.064 0.024,0.062 0.042,0.117 0.054,0.049 0.058,0.018 -0.072,0.019 0.014,0.065 0.023,0.025 0.018,0.026 0,0.033 0.028,0.004 0,0.053 0.006,0 -10e-4,0.03 -0.005,0.012 0.026,0.032 -0.006,0.02 0.019,0.007 0.011,0.011 0.015,0.051 0.038,0.044 0,0.033 -0.013,0.025 0.013,0.013 -0.013,0.005 0,0.033 0.02,0.025 0.012,0.026 0.019,0.014 0,0.014 -0.019,-0.002 -0.032,0.002 0.013,0.043 0.019,0.017 0.014,0 0.012,-0.011 0.026,-0.006 0.004,0.017 -0.018,0.021 0.027,0.017 0,0.096 0.013,0.032 0.025,0.017 0.011,0.03 -0.017,0.009 -0.009,0.038 0.015,0.066 0.024,0 -0.006,0.025 0.018,0.062 0.013,0.025 0.046,0.008 0.015,0.051 -0.019,0.012 -0.006,0.017 0.01,0.071 0.018,0.018 0.006,0.02 0.01,0.038 0.01,0.028 0.007,0.012 0.018,0 0.016,0.012 0.019,0 0.003,0.032 -0.038,0.008 0,0.016 0.016,0.02 0.013,0.033 0.019,0.005 -0.01,0.033 0.054,0.012 0.028,0.058 -0.023,0.019 -0.009,0.024 0.032,0 0,0.044 0.006,0.009 0,0.023 0.017,0.066 -0.017,-0.014 -0.006,0.025 -0.023,0.031 0,0.038 0.057,-0.019 0.017,0.019 0.02,0.014 0.049,0 0.022,-0.019 0.004,0.005 -0.026,0.028 0,0.017 -0.025,0 -0.011,-0.012 0.011,0.048 -0.006,0.021 0.012,0.005 0,0.054 0.08,-0.031 0.011,0.022 0.008,0.009 0,0.049 0.023,0 0.019,0.014 0,0.03 -0.01,0.027 0.01,0.025 0.006,0.007 0.033,0.02 0.012,0.018 0,0.025 0.006,0.012 c 0.022,0.044 0.036,0.093 0.03,0.143 l 0.046,0.036 0.066,0 0.018,-0.026 0.031,0 0.031,-0.01 0.026,-0.008 0.026,-0.005 0.006,-0.039 0.041,-0.04 0.012,-0.013 0.036,0.008 -0.017,-0.02 0,-0.044 -0.019,-0.028 0,-0.023 -0.012,-0.051 0.012,-0.025 0.019,-0.019 0.023,0.03 0.058,0.027 0.057,-0.032 -0.033,-0.039 -0.024,-0.018 0.008,-0.026 0,-0.07 -0.01,-0.032 0.045,-0.036 -0.011,-0.014 -0.008,-0.019 -0.016,0 -0.022,-0.019 0.012,-0.027 0.01,-0.029 -0.008,-0.033 -0.014,-0.056 0.057,-0.037 -0.011,-0.052 0.011,-0.135 0.05,-0.057 0.029,0 0,-0.038 0.01,-0.018 0,-0.032 0.025,0 0.018,-0.034 0.017,-0.111 -0.038,-0.104 0.043,0.033 0.017,-0.127 c 0.048,-0.27 0.095,-0.54 0.117,-0.815 l 0.017,-0.044 -0.008,-0.012 c 0.016,-0.166 0.121,-0.478 0.108,-0.642 l 0.01,-0.02 -0.019,-0.022 0,-0.067 -0.008,-0.138 0.017,-0.033 -0.017,-0.032 0.058,-0.076 0.007,-0.052 0.031,-0.03 0,-0.084 0.025,-0.145 0.016,-0.12 0.019,-0.051 -0.019,-0.051 0.019,-0.064 0.009,-0.051 0.013,-0.13 0.044,-0.258 0,-0.057 0.024,-0.051 0,-0.07 c 0.064,-0.3 0.092,-0.595 0.134,-0.899 l 0.01,-0.042 -0.01,-0.049 0.019,-0.013 0,-0.038 0.014,-0.06 c 0.059,-0.218 0.066,-0.526 0.119,-0.735 l 0.009,-0.057 -0.013,-0.057 0.033,-0.056 -0.011,-0.059 0.023,-0.065 0.006,-0.03 -0.006,-0.023 0.013,-0.048 -0.013,-0.033 0.013,-0.027 0.026,-0.079 -0.016,-0.045 0.026,-0.025 0,-0.075 0.023,-0.086 0,-0.056 0.009,-0.013 0,-0.037 0.013,-0.038 0,-0.076 0.02,0 0,-0.02 -0.011,-0.013 0.011,-0.051 0,-0.044 0.01,-0.05 0,-0.057 0.015,-0.013 0,-0.025 0.013,-0.095 0,-0.082 0.028,-0.021 -0.012,-0.031 0.003,-0.051 0.009,-0.037 0.004,-0.077 0.012,-0.006 -0.012,-0.026 0.019,-0.019 0,-0.039 0.01,-0.044 0,-0.051 0.028,-0.019 0,-0.062 0.01,-0.047 0.015,-0.016 -0.015,-0.02 0.021,-0.05 -0.012,-0.047 c 0.057,-0.191 0.039,-0.148 0.047,-0.312 l 0.022,-0.062 0,-0.038 0.026,-0.037 -0.007,-0.029 0,-0.036 0.017,-0.045 -0.017,-0.066 -0.028,-0.047 0.007,-0.059 -0.007,-0.031 -0.016,-0.044 0.003,-0.057 0.041,-0.019 0.035,-0.025 0.04,-0.045 0.014,-0.05 0.011,-0.032 0.002,-0.033 -0.013,-0.027 -0.032,-0.049 -0.028,-0.025 -0.029,-0.022 0,-0.01 -0.021,-0.024 0.028,0.01 0.028,-0.005 0.022,0.019 0.043,-0.019 0.028,-0.005 0.007,-0.028 c 0.047,-0.155 0,-0.191 0.069,-0.365 l -0.009,-0.016 0.009,-0.013 0,-0.07 0.012,-0.03 -0.012,-0.027 -0.03,-0.005 0.03,-0.038 0.021,-0.03 0.015,-0.033 0,-0.045 0.02,-0.031 0,-0.033 0.009,-0.033 0,-0.044 0.019,-0.087 0,-0.045 -0.028,-0.026 0.004,-0.076 0.03,-0.02 0.018,-0.025 0.014,-0.062 0.014,-0.084 0.005,-0.028 0,-0.035 0.013,-0.019 0.005,-0.108 0.028,-0.076 0.016,-0.084 0.003,-0.038 0,-0.026 0.005,-0.024 0.012,0 0,-0.071 -0.012,-0.025 0,-0.032 0.029,-0.032 0,-0.024 0.006,-0.033 0.022,-0.12 0.018,-0.116 0.01,-0.057 0.003,-0.062 0.016,-0.051 0.01,-0.046 0,-0.068 0.025,-0.036 0.013,-0.085 0.018,-0.076 0,-0.08 0.022,-0.053 -0.009,-0.028 0.018,-0.013 -0.011,-0.009 0.002,-0.02 0.009,-0.02 0,-0.019 -0.009,-0.032 0.022,-0.049 0.007,-0.026 0.014,-0.007 0,-0.059 0.017,-0.062 0.006,-0.026 -0.006,-0.032 0.02,-0.037 0.018,-0.056 0,-0.027 -0.018,0 0.031,-0.037 0.007,-0.07 0.006,-0.048 0.018,-0.018 0,-0.056 0.02,-0.03 0,-0.041 0.003,-0.025 0.015,-0.075 0.004,-0.038 0.014,-0.038 0,-0.031 0.023,-0.084 0,-0.024 0.01,-0.02 0.009,-0.018 0.019,-0.071 0,-0.038 0.014,-0.057 0.02,-0.019 0.017,-0.04 0.038,-0.068 0.01,-0.02 0.043,-0.057 0.038,-0.024 0,-0.022 0.009,-0.006 0.019,-0.03 0.027,-0.021 0.051,-0.03 0.034,-0.02 0.01,-0.019 0.028,-0.032 0.051,-0.011 0.081,-0.038 0.042,-0.008 0.061,-0.013 0.073,-0.019 0.027,0.005 0.052,0.014 0.086,0 0.039,0.013 0.049,0 0.075,0.019 0.149,0.038 -0.008,0.032 0.036,0 0.022,0.019 c 0.113,0.057 0.276,0.183 0.316,0.311 l 0.025,0.027 0.009,0.024 0.024,0.033 0.014,0.051 0.023,0.062 0.015,0.077 0.026,0.032 0.016,0.033 0,0.08 0.015,0.031 0.005,0.04 0.015,0.075 0.012,0.041 0,0.03 0.033,0.122 0.028,0.031 -0.028,0.02 0,0.029 0.021,0.077 0.016,0.078 0,0.081 0.025,0.022 0,0.101 0.019,0.077 c 0.011,0.11 0.042,0.217 0.047,0.328 l 0.004,0.044 0,0.071 0.024,0.074 c 0.004,0.062 0.033,0.124 0.014,0.186 l 0.014,0.024 0.001,0.032 c 0.011,0.196 0.037,0.004 0.029,0.242 l 0.02,0.019 0,0.032 0.009,0.015 -0.009,0.017 c 0.022,0.189 0.055,0.366 0.078,0.561 l 0.012,0.005 0,0.081 0.01,0.058 0.009,0.032 0.012,0.078 0.007,0.081 -0.007,0.038 0.007,0.025 0.012,0.034 0,0.03 0.007,0.033 0,0.074 0.012,0.078 0.007,0.038 -0.007,0.005 0.007,0.015 c -0.002,0.103 0.029,0.269 0.05,0.373 l 0.005,0.07 0,-0.004 0,0.054 0.013,0.046 0.011,0.084 0.004,0.03 0.01,0.032 0.015,0.019 0,0.14 c 0.015,0.164 0.044,0.049 0.032,0.285 l 0,0.051 0.006,0.019 0.006,0 -0.006,0.025 0.019,0.02 c -0.008,0.244 0.077,0.492 0.076,0.724 l 0.009,0.007 -0.009,0.014 0,0.022 0.032,0.073 -0.012,0.03 0.012,0.032 0.005,0.079 0,0.023 0.007,0.043 0.013,0.041 0,0.044 -0.006,0.037 0.02,0 0,0.065 0.01,0.038 0.008,0.049 0,0.077 0.015,0.078 0.015,0.081 0,0.077 0.023,0.029 0.004,0.04 0.028,0.017 0,0.021 0.019,0.015 0,0.022 0.019,0.007 0,0.051 0.005,0.033 0.02,0.011 0,0.11 -0.008,0.043 -0.007,0.018 0.015,0.008 0.003,0.019 0.006,0.021 0.033,0.017 -0.01,-0.017 0.055,0 0.038,0.017 0.006,0.012 0,0.029 0.034,0.035 -0.014,0.031 -0.012,0.027 -0.008,0.026 -0.018,0.012 -0.015,0.024 -0.036,0.02 -0.035,0.051 0.005,0.038 0.012,0.038 -0.002,0.019 -0.015,0.043 0.015,0.028 -0.01,0.032 0.03,0.049 0.011,0.085 0,0.074 0.014,0.07 0.011,0.07 0.008,0.07 0.007,0.076 0.018,0.026 0,0.03 -0.018,0.065 0,0.044 0.018,0.019 0,0.039 0.039,0.064 0.011,0 0,0.018 0.015,0.02 0.003,0.058 0.022,0 0.032,0.02 0.035,0.029 0.02,0.059 0.021,0.049 -0.01,0.059 0.004,0.05 0,0.008 0.018,0.011 0,0.006 0.006,0 0.032,0.013 0,0.141 0.019,0.046 0.01,0.036 0.01,0.031 -0.01,0.046 -0.029,0.018 0,0.069 0.019,0.007 0,0.038 0.01,0 -0.029,0.007 0,0.045 -0.038,-0.014 -0.05,0.029 -0.01,0.053 0,0.034 -0.009,0.023 0,0.033 0.016,0 -0.007,0.005 0.01,0.066 -0.003,0.023 0,0.033 0.007,0.038 0,0.057 0.013,0.026 0,0.027 0.011,0.028 0.004,0.033 0.006,0.006 0,0.027 0.012,0.007 0.016,0.026 0.01,0.035 -0.01,0.026 0.01,0.04 0.008,0.032 0.004,0.061 0,0.05 0.029,0.015 0.014,0.026 0,0.061 0.02,0.079 -0.012,0.031 0.006,0.005 -0.006,0.027 0.016,0.026 0.004,0.031 0.023,0.014 0.03,0 -0.047,0.036 0.008,0.032 0.009,0 0,0.025 0.021,0.019 -0.021,0.033 -0.023,0.031 0.006,0.026 0.012,0.026 0.005,0.017 0,0.019 0.039,0.037 0.019,0.022 0.014,0.011 0.011,0.009 0.01,0.124 0,0.072 -0.013,0.011 0.013,0.065 0,0.017 0.007,0.053 0.031,0.046 -0.031,0.043 0.014,0.059 -0.021,0.06 0.047,0.115 0.036,0.06 0.004,0.012 0.011,0.011 0,0.088 0.018,0.032 0.019,0.052 0.007,0.013 0.016,0.046 0,0.074 -0.016,0.011 -0.007,0.01 0,0.038 -0.005,0.03 0.012,0.026 0,0.023 0.004,0.033 0.012,0.013 0,0.014 0.017,0 -0.014,0.012 0.03,0.018 0.017,0 0,0.014 0.004,0.019"
             style="fill:#ffffff;fill-opacity:1;fill-rule:nonzero;stroke:none"
             id="path6962"
             inkscape:connector-curvature="0" />
        </g>
        <g
           id="g6964"
           transform="matrix(33.122408,0,0,-33.122408,2279.648,90.370375)">
          <path
             d="m 0,0 c 0.405,-0.014 0.752,-0.354 0.752,-0.768 l 0,-8.382 C 0.74,-9.565 0.42,-9.888 0.022,-9.913 l -0.098,0 c -0.398,0.031 -0.709,0.353 -0.709,0.768 l 0,8.406 c 0.01,0.396 0.336,0.718 0.731,0.739 L -0.042,0 0,0 Z m -2.211,-9.145 c 0,-0.415 -0.335,-0.757 -0.749,-0.768 l -0.038,0 c -0.417,0.011 -0.762,0.353 -0.762,0.768 l 0,5.262 c 0,0.426 0.345,0.769 0.755,0.776 l 0.017,0 c 0.429,-0.007 0.777,-0.35 0.777,-0.776 l 0,-5.262 z m -19.716,0 c 0,-0.42 -0.326,-0.757 -0.737,-0.768 l -0.031,0 c -0.419,0 -0.764,0.342 -0.764,0.768 l 0,4.102 c 0,0.657 -0.438,1.083 -1.272,1.083 -0.453,0 -0.712,-0.065 -1.01,-0.184 l 0,-4.983 c 0,-0.444 -0.343,-0.786 -0.781,-0.786 l -0.012,0 c -0.408,0.011 -0.737,0.348 -0.753,0.768 l 0,5.668 c 0.683,0.33 1.428,0.495 2.556,0.495 1.093,0 1.726,-0.31 2.117,-0.741 0.459,0.405 1.151,0.741 2.18,0.741 1.615,0 2.334,-1.01 2.334,-2.089 l 0,-4.074 c -0.015,-0.42 -0.326,-0.749 -0.738,-0.768 l -0.047,0 c -0.411,0.011 -0.737,0.342 -0.747,0.763 l 0,4.072 c 0,0.597 -0.337,1.113 -1.144,1.113 -0.481,0 -0.828,-0.155 -1.151,-0.48 l 0,-4.7 z M 7.557,-9.1 c 0,-0.196 -0.11,-0.376 -0.284,-0.46 -0.475,-0.257 -1.201,-0.481 -2.252,-0.481 -1.922,0 -3.14,1.256 -3.14,3.553 0,2.217 1.119,3.506 2.894,3.506 1.801,0 2.796,-1.206 2.731,-3.486 L 3.332,-7.081 c 0.127,-1.251 0.735,-1.886 1.86,-1.886 0.699,0 1.23,0.154 1.597,0.318 l 0.246,0.069 c 0.286,0 0.522,-0.233 0.522,-0.52 m -9.695,7.929 c 0,-0.425 -0.373,-0.763 -0.85,-0.763 -0.463,0 -0.848,0.338 -0.848,0.763 0,0.432 0.385,0.77 0.848,0.77 0.477,0 0.85,-0.338 0.85,-0.77 m -6.014,-7.916 c -0.281,0 -0.575,0.051 -0.774,0.134 l 0,4.833 c 0.249,0.147 0.493,0.206 0.916,0.206 1.154,0 1.559,-1.114 1.559,-2.531 0,-1.608 -0.483,-2.642 -1.701,-2.642 m 3.234,2.736 c 0,-2.285 -1.182,-3.69 -3.292,-3.69 -1.047,0 -1.815,0.224 -2.26,0.495 l 0,8.778 c 0,0.425 0.354,0.768 0.781,0.768 l 0.032,0 c 0.4,-0.027 0.731,-0.364 0.731,-0.768 l 0,-2.524 c 0.323,0.145 0.685,0.272 1.334,0.272 1.578,0 2.674,-1.299 2.674,-3.331 m -6.53,-0.164 c 0,-2.014 -0.926,-3.526 -2.833,-3.526 -1.903,0 -2.822,1.512 -2.822,3.526 0,2.034 0.919,3.533 2.822,3.533 1.916,0 2.833,-1.499 2.833,-3.533 m -1.523,0.013 c 0,-1.295 -0.209,-2.49 -1.31,-2.49 -1.062,0 -1.296,1.195 -1.296,2.49 0,1.304 0.211,2.542 1.296,2.542 1.101,0 1.31,-1.238 1.31,-2.542 m 17.688,2.575 c 0.855,0 1.355,-0.554 1.355,-1.939 L 3.247,-6.285 c -0.041,1.625 0.588,2.358 1.47,2.358"
             style="fill:#ffffff;fill-opacity:1;fill-rule:evenodd;stroke:none"
             id="path6966"
             inkscape:connector-curvature="0" />
        </g>
      </g>
    </g>
  </g>
</svg>
