<svg  viewBox="443 -5 74.29 36" fill="none" xmlns="http://www.w3.org/2000/svg">
    <path d="M420.2,10.1c.3-.2.3-.4.1-.5a.78.78,0,0,0-.8.1c-.3.2-.3.4-.1.5a.78.78,0,0,0,.8-.1" style="fill:#fff"/>
    <path d="M434.2,13.6l-.4.6a.72.72,0,0,1-.7.4h-.6l.2-.6h.2a.1.1,0,0,0,.1-.1l.2-.3Z" style="fill:#fff"/>
    <path d="M461.62,5.14a7.47,7.47,0,0,0-4.5,1.51,7.48,7.48,0,0,1,0,12,7.41,7.41,0,0,0,4.5,1.51,7.5,7.5,0,1,0,0-15Z"
          style="fill:#cfd6de"/>
    <path d="M460.12,12.64a7.48,7.48,0,0,0-3-6c-1.82,1.4-4,3.55-4,6s2.18,4.63,4,6A7.45,7.45,0,0,0,460.12,12.64Z"
          style="fill:#bcc6d2"/>
    <path
        d="M482.2,14.94V11.81a1.86,1.86,0,0,0-2-2,1.94,1.94,0,0,0-1.76.89,1.84,1.84,0,0,0-1.65-.89,1.65,1.65,0,0,0-1.46.74V9.95h-1.09v5h1.1V12.17a1.17,1.17,0,0,1,1.22-1.33c.72,0,1.09.47,1.09,1.32v2.78h1.1V12.17A1.18,1.18,0,0,1,480,10.85c.74,0,1.1.47,1.1,1.32v2.78Zm6.13-2.5V9.95h-1.09v.61a1.9,1.9,0,0,0-1.58-.73,2.5,2.5,0,0,0-2.5,2.62,2.5,2.5,0,0,0,2.5,2.62,1.9,1.9,0,0,0,1.58-.73v.61h1.09Zm-4,0a1.51,1.51,0,1,1,3,0,1.51,1.51,0,1,1-3,0Zm27.32-2.63a2.82,2.82,0,0,1,1.07.2,2.62,2.62,0,0,1,.85.55,2.53,2.53,0,0,1,.56.83,2.78,2.78,0,0,1,0,2.09,2.53,2.53,0,0,1-.56.83,2.61,2.61,0,0,1-.85.55,3,3,0,0,1-2.15,0,2.59,2.59,0,0,1-.85-.55,2.56,2.56,0,0,1-.56-.83,2.78,2.78,0,0,1,0-2.09,2.56,2.56,0,0,1,.56-.83,2.59,2.59,0,0,1,.85-.55A2.82,2.82,0,0,1,511.59,9.82Zm0,1A1.62,1.62,0,0,0,511,11a1.47,1.47,0,0,0-.5.33,1.53,1.53,0,0,0-.33.51,1.82,1.82,0,0,0,0,1.3,1.53,1.53,0,0,0,.33.51,1.47,1.47,0,0,0,.5.33,1.7,1.7,0,0,0,1.24,0,1.5,1.5,0,0,0,.5-.33,1.52,1.52,0,0,0,.33-.51,1.82,1.82,0,0,0,0-1.3,1.52,1.52,0,0,0-.33-.51,1.5,1.5,0,0,0-.5-.33A1.62,1.62,0,0,0,511.59,10.84Zm-17.35,1.6a2.4,2.4,0,0,0-2.37-2.62,2.44,2.44,0,0,0-2.49,2.62,2.46,2.46,0,0,0,2.56,2.62,3,3,0,0,0,2-.7l-.53-.81a2.38,2.38,0,0,1-1.45.52,1.39,1.39,0,0,1-1.5-1.22h3.71C494.23,12.73,494.24,12.59,494.24,12.45ZM490.52,12a1.29,1.29,0,0,1,1.33-1.21A1.24,1.24,0,0,1,493.11,12Zm8.77-1.66a3.74,3.74,0,0,0-2-.52c-1.27,0-2.08.61-2.08,1.6,0,.82.61,1.32,1.73,1.47l.51.07c.6.08.88.24.88.52s-.4.61-1.14.61a2.66,2.66,0,0,1-1.66-.52l-.51.85a3.61,3.61,0,0,0,2.16.65c1.44,0,2.28-.68,2.28-1.63s-.66-1.34-1.75-1.5l-.51-.07c-.47-.06-.85-.16-.85-.49s.36-.59,1-.59a3.22,3.22,0,0,1,1.56.43Zm4.75-.4h-1.78V8.43h-1.1V9.95h-1v1h1v2.28c0,1.16.45,1.85,1.74,1.85a2.55,2.55,0,0,0,1.36-.39l-.31-.93a2,2,0,0,1-1,.28c-.54,0-.72-.33-.72-.84V10.94H504Zm3.76-.13a1.47,1.47,0,0,0-1.32.73V9.95h-1.08v5h1.09v-2.8c0-.83.36-1.29,1.07-1.29a1.77,1.77,0,0,1,.68.13l.33-1a2.32,2.32,0,0,0-.77-.14Z"
        style="fill:#a9b6c4"/>
    <path d="M454.12,12.64a7.48,7.48,0,0,1,3-6,7.5,7.5,0,1,0,0,12A7.45,7.45,0,0,1,454.12,12.64Z" style="fill:#a9b6c4"/>
    <rect width="514.29" height="25" style="fill:none"/>
</svg>
