<?xml version="1.0" encoding="UTF-8" standalone="no"?>
<!-- Created with Inkscape (http://www.inkscape.org/) -->
<svg xmlns:dc="http://purl.org/dc/elements/1.1/" xmlns:cc="http://creativecommons.org/ns#" xmlns:rdf="http://www.w3.org/1999/02/22-rdf-syntax-ns#" xmlns:svg="http://www.w3.org/2000/svg" xmlns="http://www.w3.org/2000/svg" xmlns:xlink="http://www.w3.org/1999/xlink" version="1.1" width="75" height="75" id="Monero-Logo">
  <metadata id="metadata8">
    <rdf:RDF>
      <cc:Work rdf:about="">
        <dc:format>image/svg+xml</dc:format>
        <dc:type rdf:resource="http://purl.org/dc/dcmitype/StillImage"/>
        <dc:title/>
      </cc:Work>
    </rdf:RDF>
  </metadata>
  <defs id="defs6"/>
  <path d="m 37.3,0.35329395 c -20.377,0 -36.903,16.524 -36.903,36.902 0,4.074 0.66,7.992 1.88,11.657 l 11.036,0 0,-31.049 23.987,23.987 23.987,-23.987 0,31.049 11.037,0 c 1.22,-3.665 1.88,-7.583 1.88,-11.657 0,-20.378 -16.526,-36.902 -36.904,-36.902" id="path22" style="fill:#c3c9d1"/>
  <path d="m 21.3164,36.895994 0,19.537 -15.55,0 c 6.478,10.628 18.178,17.726 31.533,17.726 13.355,0 25.056,-7.098 31.533,-17.726 l -15.549,0 0,-19.537 -15.984,15.984 z" id="path26" style="fill:#acb7c3"/>

</svg>