<svg data-name="Layer 1" xmlns="http://www.w3.org/2000/svg" xmlns:xlink="http://www.w3.org/1999/xlink" width="30" height="30" viewBox="0 0 213.3064 231.2178">
    <defs>
        <linearGradient id="linear-gradient" x1="83.682" y1="72.4883" x2="231.177" y2="219.9832" gradientUnits="userSpaceOnUse">
            <stop offset="0" stop-color="#acb7c3"/>
            <stop offset="1" stop-color="#acb7c3"/>
        </linearGradient>
    </defs>
    <title>Ripple_logo_RGB</title>
     <path d="M202.3319,169.7011c-7.5243-4.3445-15.9976-5.6037-24.3906-5.8968-7.0417-.2459-17.5476-4.7583-17.5476-17.5681,0-9.5441,7.7369-17.2252,17.5512-17.5679,8.3923-.2931,16.8648-1.5539,24.387-5.8969A44.4477,44.4477,0,1,0,135.6605,84.28c0,8.6117,3.0629,16.5366,6.9711,23.8868,3.287,6.182,4.95,17.6559-6.3235,24.1644-8.3862,4.8418-18.8523,1.776-24.08-6.5905-4.4158-7.0666-9.7464-13.6878-17.2095-17.9974a44.4475,44.4475,0,1,0,0,76.9852c7.461-4.308,12.7921-10.9249,17.2051-17.9872,3.6238-5.7993,12.6743-13.1915,24.084-6.5992,8.3734,4.838,10.962,15.4379,6.32,24.1688-3.9076,7.3491-6.9666,15.2723-6.9666,23.8825A44.4471,44.4471,0,1,0,202.3319,169.7011Z" transform="translate(-28.3468 -25.2981)" style="fill:url(#linear-gradient)"/>
</svg>
